<svg xmlns="http://www.w3.org/2000/svg" width="728" height="410" preserveAspectRatio="none" viewBox="0 0 728 410"><g mask="url(&quot;#SvgjsMask1011&quot;)" fill="none"><rect width="728" height="410" x="0" y="0" fill="rgba(1, 135, 95, 1)"></rect><path d="M77.25 0C95.98 29.51 56.71 57.04 65.37 103C69.59 125.41 86.08 136.74 103 136.74C116.83 136.74 113.59 118.8 126.87 103C165.09 57.49 165.25 57.29 206 14.11C213.85 5.79 213.12 1.5 224.07 0C264.62 -5.56 266.53 0 309 0C351.47 0 354.19 -6.74 393.93 0C405.69 1.99 400.72 17.46 412 17.46C441.95 17.46 443.76 5.53 476.38 0C495.26 -3.2 495.69 0 515 0C566.5 0 566.5 0 618 0C669.5 0 669.5 0 721 0C772.5 0 798.25 -25.75 824 0C849.75 25.75 824 51.5 824 103C824 154.5 824 154.5 824 206C824 257.5 824 257.5 824 309C824 347.44 832.42 350.8 824 385.89C820.06 402.3 815.49 407.89 799.28 412C763.99 420.95 760.14 412 721 412C669.5 412 669.5 412 618 412C566.5 412 566.5 412 515 412C463.5 412 463.5 412 412 412C360.5 412 360.5 412 309 412C270.38 412 246.78 434.04 231.75 412C211.66 382.54 246.51 358.04 238.77 309C233.64 276.5 232.38 254.48 206 248.92C164.49 240.17 153.95 263.06 103 280.39C65.66 293.1 29.43 296.56 29.43 309C29.43 321.03 72.5 308.68 103 329.33C148.56 360.18 181.54 387.52 181.54 412C181.54 428.86 142.27 412 103 412C51.5 412 25.75 437.75 0 412C-25.75 386.25 0 360.5 0 309C0 257.5 0 257.5 0 206C0 154.5 0 154.5 0 103C0 51.5 -22.07 29.43 0 0C16.55 -22.07 63.3 -21.99 77.25 0" stroke="rgba(248, 252, 251, 1)" stroke-width="2"></path><path d="M618 75.82C602.38 75.82 586.44 85.92 586.44 103C586.44 134.45 602.52 172.89 618 172.89C633.36 172.89 648.11 134.66 648.11 103C648.11 86.12 633.21 75.82 618 75.82" stroke="rgba(248, 252, 251, 1)" stroke-width="2"></path><path d="M618 290.27C616.05 290.27 613.52 300.47 613.52 309C613.52 311.44 615.88 312.22 618 312.22C619.76 312.22 621.27 311.13 621.27 309C621.27 300.16 619.93 290.27 618 290.27" stroke="rgba(248, 252, 251, 1)" stroke-width="2"></path><path d="M50.43 0C55.84 35.17 3.2 59.4 15.85 103C29.48 149.97 55.67 148.03 103 181.14C129.29 199.53 163.08 193.18 163.08 206C163.08 218.96 133.01 219.29 103 232.7C51.47 255.73 31.29 287 0 278.89C-20.21 273.65 0 242.44 0 206C0 154.5 0 154.5 0 103C0 51.5 -16.93 34.57 0 0C8.29 -16.93 47.92 -16.33 50.43 0" stroke="rgba(248, 252, 251, 1)" stroke-width="2"></path><path d="M158.27 103C158.27 73.82 179.8 73.7 206 49.38C235.29 22.2 234.81 16.51 269.25 0C286.31 -8.18 289.13 0 309 0C328.88 0 332.72 -9.51 348.75 0C384.22 21.04 373.78 48.94 412 61.1C456.91 75.39 472.53 39.5 515 52.89C538.98 60.45 544.9 78.46 544.9 103C544.9 125.07 537.41 137.95 515 146.12C470.96 162.18 463.43 152.4 412 151.47C360.43 150.53 358.61 134.42 309 142.38C255.61 150.95 246.76 195.19 206 184.54C171.4 175.5 158.27 141.4 158.27 103" stroke="rgba(248, 252, 251, 1)" stroke-width="2"></path><path d="M618 40.06C589.28 17.49 556.64 10.9 556.64 0C556.64 -9.13 587.32 0 618 0C669.5 0 669.5 0 721 0C753.3 0 763.66 -16.64 785.59 0C815.16 22.43 809.06 38.08 824 78.14C828.27 89.58 824 90.57 824 103C824 154.5 824 154.5 824 206C824 257.5 824 257.5 824 309C824 329.31 833.48 333.09 824 349.62C803.95 384.59 799.02 391.37 764.95 412C747.52 422.56 742.97 412 721 412C669.5 412 669.5 412 618 412C582.05 412 574.95 425.19 546.09 412C523.45 401.65 532.27 387.14 515 364.91C492.26 335.64 466.08 335.56 466.08 309C466.08 285.36 491.32 264.52 515 264.52C537.05 264.52 534.23 289.1 557.54 309C585.73 333.07 589.45 352.45 618 352.45C641.75 352.45 640.83 331.45 662.14 309C692.33 277.2 689.09 273.73 721 243.95C744.27 222.23 772.5 226.91 772.5 206C772.5 182.19 744.01 182.46 721 154.5C701.62 130.96 708.06 125.6 687.72 103C656.56 68.38 654.82 68.99 618 40.06" stroke="rgba(248, 252, 251, 1)" stroke-width="2"></path><path d="M277.79 309C284.41 288.2 291.46 275.77 309 275.77C332.18 275.77 336.92 289.13 359.24 309C388.42 334.98 384.04 339.84 412 367.46C436.17 391.34 463.5 399.32 463.5 412C463.5 421.59 437.75 412 412 412C360.5 412 360.5 412 309 412C287.32 412 270.23 427.19 265.63 412C254.63 375.69 262.73 356.32 277.79 309" stroke="rgba(248, 252, 251, 1)" stroke-width="2"></path><path d="M0 364.91C35.34 348.17 57.83 348.97 103 363.21C132.51 372.51 149.35 397.55 149.35 412C149.35 421.95 126.18 412 103 412C51.5 412 35.34 428.16 0 412C-16.16 404.61 -16.16 372.56 0 364.91" stroke="rgba(248, 252, 251, 1)" stroke-width="2"></path><path d="M23.6 0C23.6 21.11 6.13 58.1 0 58.1C-5.67 58.1 -8.39 20.66 0 0C3.41 -8.39 23.6 -7.94 23.6 0" stroke="rgba(248, 252, 251, 1)" stroke-width="2"></path><path d="M189.67 103C189.67 93.02 194.54 87.13 206 84.66C254.2 74.26 259.4 71.36 309 77.25C336.65 80.53 360.5 95.81 360.5 103C360.5 109.44 334.21 99.96 309 104.51C256.96 113.91 251.75 131.48 206 130.9C192.09 130.72 189.67 116.14 189.67 103" stroke="rgba(248, 252, 251, 1)" stroke-width="2"></path><path d="M618 4.29C614.79 2.03 611.43 1.17 611.43 0C611.43 -0.98 614.71 0 618 0C669.5 0 669.5 0 721 0C731.47 0 741.95 -8.01 741.95 0C741.95 30.61 745.05 76.42 721 77.25C683.07 78.56 669.58 40.65 618 4.29" stroke="rgba(248, 252, 251, 1)" stroke-width="2"></path><path d="M0 149.08C20.55 149.08 67.59 181.66 67.59 206C67.59 226.76 23.44 239.28 0 239.28C-10.35 239.28 0 222.64 0 206C0 177.54 -13.24 149.08 0 149.08" stroke="rgba(248, 252, 251, 1)" stroke-width="2"></path><path d="M703.02 309C712.47 299.5 708.77 293.58 721 289.12C769.26 271.51 787.66 257.85 824 264.86C839.16 267.79 824 286.93 824 309C824 311.17 825.45 311.75 824 313.35C778.75 363.25 778.71 365.93 730.61 412C727.21 415.26 725.81 412 721 412C669.5 412 669.5 412 618 412C606.34 412 594.68 416.2 594.68 412C594.68 406.55 607.04 403.11 618 392.69C661.21 351.61 660.97 351.28 703.02 309" stroke="rgba(248, 252, 251, 1)" stroke-width="2"></path><path d="M46.35 412C46.35 408.21 76.79 397.09 103 397.09C112.2 397.09 117.16 407.59 117.16 412C117.16 415.04 110.08 412 103 412C74.68 412 46.35 415.67 46.35 412" stroke="rgba(248, 252, 251, 1)" stroke-width="2"></path><path d="M299.51 412C299.51 386.01 296.79 351.92 309 351.92C324.07 351.92 354.06 393.23 354.06 412C354.06 423.26 331.53 412 309 412C304.25 412 299.51 416.05 299.51 412" stroke="rgba(248, 252, 251, 1)" stroke-width="2"></path></g><defs><mask id="SvgjsMask1011"><rect width="728" height="410" fill="#ffffff"></rect></mask></defs></svg>