<svg xmlns="http://www.w3.org/2000/svg" width="728" height="410" preserveAspectRatio="none" viewBox="0 0 728 410"><g mask="url(&quot;#SvgjsMask1007&quot;)" fill="none"><rect width="728" height="410" x="0" y="0" fill="#0e2a47"></rect><path d="M60.08 0C82.95 4.76 83.04 21.46 103 21.46C116.21 21.46 111.72 3.06 126.41 0C163.22 -7.67 166.2 0 206 0C242.48 0 247.06 -10.31 278.96 0C298.56 6.33 292.14 33.28 309 33.28C330.67 33.28 329.9 8.44 356.02 0C381.4 -8.2 384.01 0 412 0C445.01 0 446.65 -6.28 478.03 0C498.15 4.02 498.2 20.6 515 20.6C526.05 20.6 520.94 2.56 533.73 0C572.44 -7.74 575.87 0 618 0C669.5 0 669.5 0 721 0C772.5 0 798.25 -25.75 824 0C849.75 25.75 824 51.5 824 103C824 154.5 824 154.5 824 206C824 257.5 824 257.5 824 309C824 351.71 831.2 354.82 824 394.41C821.83 406.32 817.3 409.94 805.27 412C765.8 418.74 763.13 412 721 412C669.5 412 669.5 412 618 412C566.5 412 566.5 412 515 412C463.5 412 463.5 412 412 412C396.26 412 393.11 420.07 380.53 412C341.61 387.05 344.11 345.97 309 345.97C275.33 345.97 279.86 388.35 242.97 412C228.36 421.36 224.49 412 206 412C154.5 412 154.5 412 103 412C51.5 412 27.81 435.69 0 412C-23.69 391.82 -8.85 363.35 0 324.26C2.81 311.85 20.62 321.59 23.32 309C33.31 262.46 34.15 253.2 25.38 206C22.49 190.48 3.76 198.8 0 183.55C-8.93 147.3 0 143.28 0 103C0 51.5 -18.97 32.53 0 0C11.07 -18.97 31.45 -5.97 60.08 0" stroke="rgba(51, 121, 194, 0.58)" stroke-width="2"></path><path d="M412 91.96C408.97 91.96 410.47 99.1 405.43 103C358.97 138.95 362.32 153.05 309 171.67C262.61 187.87 252.54 160.76 206 172.63C185.24 177.93 174.41 188.26 174.41 206C174.41 226.88 183.09 239.16 206 249.87C250.39 270.63 260.57 278 309 268.94C363.57 258.73 361.09 240.91 412 211.33C415.25 209.44 417.15 209.69 417.33 206C419.77 155.53 419.62 153.97 417.24 103C416.96 96.95 414.88 91.96 412 91.96" stroke="rgba(51, 121, 194, 0.58)" stroke-width="2"></path><path d="M721 44.48C695.04 44.48 665.02 78.07 665.02 103C665.02 122.65 693.99 133.65 721 133.65C743.08 133.65 763.21 121.71 763.21 103C763.21 77.12 744.13 44.48 721 44.48" stroke="rgba(51, 121, 194, 0.58)" stroke-width="2"></path><path d="M618 291.24C612.68 291.24 604.79 301.01 604.79 309C604.79 315.04 612.29 319.3 618 319.3C622.16 319.3 624.52 314.5 624.52 309C624.52 300.47 622.55 291.24 618 291.24" stroke="rgba(51, 121, 194, 0.58)" stroke-width="2"></path><path d="M0 10.3C28.31 -2.28 55.69 60.17 103 57.22C138.4 55.02 130.6 19.34 165.42 0C182.1 -9.27 185.71 0 206 0C224.6 0 229.04 -10.01 243.19 0C280.54 26.43 273.73 39.08 309 72.89C327.46 90.58 350.64 88.02 350.64 103C350.64 117.9 332.98 127.12 309 132.65C260.66 143.8 249.75 117.37 206 136.37C165.29 154.05 140.08 168.97 140.08 206C140.08 249.57 167.78 259.06 206 297.56C218.91 310.56 242.35 298.83 242.35 309C242.35 322.72 228.19 333.42 206 345.35C158.52 370.87 148.1 357.86 103 383.91C90.42 391.18 103.67 408.45 90.64 412C52.17 422.49 28.02 429.3 0 412C-17.3 401.32 -14.18 376.36 0 356.05C21.78 324.86 57.68 343.05 71.91 309C89.03 268.03 82.57 249.79 62.7 206C46.62 170.56 19.99 183.39 0 150.54C-11.36 131.89 0 126.77 0 103C0 56.65 -23.19 20.61 0 10.3" stroke="rgba(51, 121, 194, 0.58)" stroke-width="2"></path><path d="M460.88 103C471.73 72.74 489.64 81.96 515 57.39C542.79 30.46 536.06 17.33 567.17 0C587.56 -11.36 592.59 0 618 0C662.47 0 706.95 -19.03 706.95 0C706.95 27.56 663.01 47.16 618 93.19C612.65 98.66 606.44 95.72 606.23 103C604.78 152.12 629.75 159.98 614.68 206C596.02 262.98 537.84 262.85 538.77 309C539.5 345.25 583.76 370.8 618 370.8C642.93 370.8 656.52 342.06 657.11 309C657.99 259.66 604.91 242.3 620.94 206C636.86 169.96 672.45 164.31 721 164.31C757.5 164.31 757.38 183.25 791.04 206C808.88 218.06 817.98 215.12 824 233.93C834.46 266.62 824 271.47 824 309C824 336 835.22 340.86 824 363.01C809.13 392.36 801.94 397.68 771.83 412C750.44 422.17 746.41 412 721 412C669.5 412 669.5 412 618 412C566.5 412 566.5 412 515 412C486.76 412 484.17 420.16 458.52 412C432.67 403.78 433.69 397.55 412 379.23C372.74 346.05 336.63 341.57 336.63 309C336.63 279.82 376.5 284.95 412 255.72C439.04 233.45 451.8 236.98 461.72 206C476.24 160.62 445.09 147.04 460.88 103" stroke="rgba(51, 121, 194, 0.58)" stroke-width="2"></path><path d="M805.43 103C782.56 51.49 753.72 32.78 759.63 0C763 -18.72 811.62 -19.81 824 0C843.81 31.69 824 51.5 824 103C824 123.98 828.44 144.96 824 144.96C819.15 144.96 814.74 123.97 805.43 103" stroke="rgba(51, 121, 194, 0.58)" stroke-width="2"></path><path d="M0 74.68C40.53 70.74 51.32 85 103 92.99C142.88 99.16 182.58 81.23 183.11 103C183.96 137.74 140.67 152.93 105.75 206C100.62 213.8 104.43 224.73 103 224.73C101.56 224.73 106.42 212.67 100.01 206C54.92 159.07 45.1 163.98 0 117.53C-4.91 112.48 0 110.26 0 103C0 88.84 -10.97 75.75 0 74.68" stroke="rgba(51, 121, 194, 0.58)" stroke-width="2"></path><path d="M206 34.33C205.25 34.33 204.44 16.42 204.44 0C204.44 -0.75 205.22 0 206 0C206.72 0 207.43 -0.69 207.43 0C207.43 16.48 206.75 34.33 206 34.33" stroke="rgba(51, 121, 194, 0.58)" stroke-width="2"></path><path d="M504.53 103C505.05 96.44 509.24 94.17 515 94.17C523.3 94.17 531.32 94.01 532.66 103C539.63 149.92 538.47 156.48 531.61 206C529.64 220.24 521.78 230.52 515 230.52C509.03 230.52 507.18 218.88 506.12 206C501.94 155.12 500.61 152.35 504.53 103" stroke="rgba(51, 121, 194, 0.58)" stroke-width="2"></path><path d="M618 31.88C607.2 31.88 600.61 10.78 600.61 0C600.61 -5.16 609.31 0 618 0C633.21 0 648.43 -6.51 648.43 0C648.43 9.43 631.11 31.88 618 31.88" stroke="rgba(51, 121, 194, 0.58)" stroke-width="2"></path><path d="M694.51 206C697.92 193.59 708.15 194.96 721 194.96C730.66 194.96 731.14 199.26 739.54 206C782.64 240.57 791.11 237.46 824 277.58C833.34 288.96 824 293.29 824 309C824 320.31 830.91 323.3 824 331.61C788.11 374.8 783.25 376.99 738.39 412C731.75 417.18 729.69 412 721 412C683.81 412 652.87 432.59 646.61 412C637.22 381.09 677.26 362.55 689.71 309C701.21 259.55 682.27 250.61 694.51 206" stroke="rgba(51, 121, 194, 0.58)" stroke-width="2"></path><path d="M399.44 309C399.44 304.14 405.12 300.12 412 300.12C423.66 300.12 436.52 303.96 436.52 309C436.52 314.25 423.36 320.7 412 320.7C404.82 320.7 399.44 314.43 399.44 309" stroke="rgba(51, 121, 194, 0.58)" stroke-width="2"></path><path d="M0 387.84C12.83 387.84 39.14 405.47 39.14 412C39.14 417.55 12.1 419.47 0 412C-7.47 407.39 -6.74 387.84 0 387.84" stroke="rgba(51, 121, 194, 0.58)" stroke-width="2"></path></g><defs><mask id="SvgjsMask1007"><rect width="728" height="410" fill="#ffffff"></rect></mask></defs></svg>