<?xml version="1.0" encoding="utf-8"?><!DOCTYPE svg  PUBLIC '-//W3C//DTD SVG 1.1//EN'  'http://www.w3.org/Graphics/SVG/1.1/DTD/svg11.dtd'><svg xmlns="http://www.w3.org/2000/svg" xmlns:xlink="http://www.w3.org/1999/xlink"><defs>
  <svg fill-rule="evenodd" id="Share" xmlns="http://www.w3.org/2000/svg" height="24" viewBox="0 0 400 400" width="24"><path d="M297.1 77.5c-.322.736-.55 5.093-.69 13.181-.155 8.895-.342 12.212-.71 12.58-.275.274-.504.868-.509 1.319-.054 5.026-3.923 6.419-22.191 7.992l-11.469.989c-3.359.29-4.518.553-5.436 1.232-1.309.967-3.02 1.412-7.023 1.825-2.005.207-3.026.532-3.851 1.226-.627.527-2.329 1.224-3.85 1.577-1.805.419-3.17 1.022-4.04 1.786-.723.634-1.993 1.274-2.822 1.422s-1.959.685-2.509 1.194-1.944 1.363-3.099 1.896-2.453 1.42-2.886 1.971a5.65 5.65 0 0 1-1.911 1.467c-.618.256-1.299.865-1.514 1.352s-.877 1.119-1.472 1.403-1.463 1.049-1.927 1.701-1.109 1.187-1.432 1.187-.949.615-1.393 1.367-1.244 1.654-1.778 2.004-1.248 1.172-1.587 1.827-1.05 1.3-1.582 1.433c-.583.146-1.123.693-1.362 1.376-.217.624-.842 1.427-1.388 1.784s-1.104 1.094-1.24 1.635-.78 1.459-1.431 2.039-1.564 1.838-2.026 2.794-1.281 2.084-1.819 2.506c-.553.436-1.239 1.653-1.582 2.809-.334 1.123-.965 2.263-1.404 2.534s-1.07 1.426-1.412 2.597c-.338 1.157-1.06 2.634-1.605 3.282s-1.32 2.366-1.723 3.819-1.129 3.064-1.612 3.579c-.636.676-.982 1.749-1.249 3.873-.434 3.456-1.009 5.358-2.045 6.761-.579.785-.846 2.212-1.159 6.2a106.72 106.72 0 0 1-1.428 10.304c-.562 2.817-.912 5.232-.778 5.366s.244-.146.244-.622c0-.724.231-.867 1.395-.867 1.19 0 1.542-.233 2.394-1.583.55-.87 1.376-1.784 1.837-2.031s1.012-.948 1.225-1.56.829-1.348 1.369-1.637 1.345-1.142 1.791-1.897 1.172-1.467 1.615-1.583 1.077-.736 1.409-1.377 1.002-1.348 1.489-1.57 1.192-.937 1.566-1.59 1.002-1.303 1.395-1.446 1.371-.906 2.174-1.694c2.99-2.936 4.693-4.432 5.044-4.432.199 0 1.157-.718 2.129-1.595s2.326-1.783 3.009-2.012 1.436-.844 1.674-1.367c.261-.572.922-1.058 1.66-1.22.674-.149 1.958-.882 2.854-1.63s2.302-1.542 3.126-1.764 1.927-.861 2.453-1.42 1.953-1.306 3.173-1.659 2.719-1.06 3.331-1.571 1.781-1.044 2.6-1.183c2.778-.471 3.885-.861 5.428-1.91.847-.576 2.197-1.151 3-1.277 5.242-.822 6.729-1.155 7.272-1.625 1.597-1.387 5.21-1.823 16.988-2.052 16.049-.312 19.88-.025 21.672 1.627l2.3 2.094c.542.484 1.053 1.527 1.213 2.477.153.902.533 1.853.846 2.113.47.39.569 2.66.569 13.014v12.542l.984.645.985.645 22.824-22.936 23.245-23.336c.232-.22 1.577-1.57 2.989-3l3.186-3.2a50.89 50.89 0 0 0 1.503-1.556c.486-.525 1.537-1.57 2.336-2.322 1.729-1.628 1.562-4.232-.318-4.947-.525-.2-1.316-.976-1.758-1.726s-1.16-1.456-1.594-1.57-1.034-.787-1.332-1.496c-.337-.8-1.033-1.496-1.833-1.833-.709-.298-1.383-.897-1.496-1.332s-.836-1.161-1.604-1.614-1.492-1.187-1.608-1.63-.725-1.072-1.353-1.397-1.42-1.127-1.76-1.784-.851-1.193-1.137-1.193c-.611 0-2.259-1.661-2.259-2.277 0-.234-.527-.644-1.172-.911-.655-.272-1.447-1.066-1.796-1.801-.343-.724-.985-1.41-1.425-1.525s-1.115-.758-1.5-1.428-1.111-1.323-1.615-1.449c-.518-.13-1.197-.821-1.564-1.591-.358-.751-1.048-1.462-1.538-1.585s-1.111-.759-1.382-1.414-1.122-1.561-1.891-2.015-1.483-1.153-1.588-1.555-.803-1.022-1.55-1.378c-.768-.367-1.458-1.046-1.588-1.563-.126-.504-.761-1.22-1.41-1.593s-1.386-1.127-1.636-1.677a3.02 3.02 0 0 0-1.533-1.374c-.622-.217-1.29-.887-1.579-1.585-.302-.727-.897-1.309-1.493-1.458-.619-.156-1.199-.743-1.54-1.559-.301-.72-1.012-1.521-1.579-1.78s-1.228-.898-1.466-1.421-1.041-1.24-1.783-1.594c-.794-.378-1.451-1.041-1.592-1.605-.133-.529-.686-1.164-1.229-1.412s-1.295-.989-1.67-1.647c-.849-1.493-1.559-1.527-2.181-.103" fill="#01875f"></path><path d="M279.77 43.377c-.135.538-.128 1.168.016 1.4.255.413-.178.56-1.386.471-2.041-.152-1.899-2.124-1.959 27.252l-.041 19.9h-9.2-9.2v1.4 1.4l-4.5.023c-9.448.049-10.617.263-10.966 2.009L242.3 98.4h-3.15c-1.732 0-3.15.163-3.15.363s-.361.268-.802.152c-1.048-.274-1.998.542-1.998 1.717 0 .889-.152.94-3.1 1.051l-3.1.117-.127 1.323c-.149 1.554-.276 1.615-3.673 1.763-1.964.086-2.613.261-2.654.714a53.57 53.57 0 0 0-.1 1.5c-.042.814-.248.9-2.157.9-2.374 0-3.768.74-3.962 2.104-.102.718-.424.921-1.627 1.02-1.419.118-1.5.199-1.5 1.5 0 1.345-.556 1.705-2.163 1.402-.548-.103-1.024.843-1.031 2.05-.005.953-.177 1.09-1.506 1.2-1.419.117-1.507.205-1.624 1.624-.121 1.458-.168 1.5-1.7 1.5-1.568 0-1.576.008-1.576 1.576 0 1.532-.042 1.579-1.5 1.7-1.369.113-1.511.237-1.625 1.424-.101 1.043-.303 1.3-1.024 1.3-1.021 0-2.345.839-2.232 1.415.203 1.034-.06 2.207-.442 1.971-1.089-.673-2.377.205-2.377 1.622 0 1.14-.149 1.392-.826 1.392-1.245 0-2.424.766-2.349 1.525.037.371.046 1.62.021 2.775l-.046 2.1h-1.6-1.6v1.6c0 1.556-.038 1.6-1.373 1.6-1.576 0-1.728.303-1.8 3.583-.048 2.195-.483 2.924-1.51 2.53-.939-.36-1.604 1.107-1.624 3.584-.023 2.749.034 2.65-1.593 2.774-1.402.107-1.901 1.516-1.633 4.611.127 1.462.08 1.525-1.268 1.718l-1.399.2-.113 4.477-.113 4.476-1.487.124-1.487.123-.113 5.188c-.115 5.332-.67 7.012-2.314 7.012-.924 0-.973 1.356-.973 27.033V235.6l1.6 1.6c1.333 1.333 1.6 1.867 1.6 3.2 0 1.596.004 1.6 1.576 1.6 1.532 0 1.579.042 1.7 1.5l.124 1.5 5 .116c6.291.145 6.64.06 6.969-1.689.234-1.248.401-1.392 1.745-1.504 1.403-.116 1.493-.207 1.61-1.623.104-1.25.274-1.5 1.02-1.5 1.437 0 1.856-.78 1.856-3.456v-2.496l1.5-.124c1.478-.122 1.502-.15 1.62-1.969.096-1.489.302-1.928 1.065-2.275.52-.237 1.063-.802 1.207-1.256s.43-.824.635-.824.373-.61.373-1.355c0-1.226.131-1.381 1.361-1.611 1.417-.266 1.839-.832 1.839-2.467 0-.688.222-.967.771-.967 1.286 0 1.978-1.099 2.26-3.589l.268-2.369 1.45-.121c1.362-.114 1.459-.213 1.575-1.621.118-1.419.199-1.5 1.5-1.5s1.376-.071 1.376-1.4c0-1.214.128-1.4.967-1.4 1.737 0 2.233-.409 2.233-1.843 0-1.169.134-1.357.967-1.357 1.737 0 2.233-.409 2.233-1.843 0-1.22.113-1.357 1.12-1.357 1.415 0 2.08-.658 2.08-2.056 0-.977.162-1.109 1.5-1.22 1.419-.117 1.507-.205 1.624-1.624l.124-1.5 1.876-.005c2.972-.009 3.624-.312 3.907-1.817.223-1.192.406-1.348 1.709-1.456 1.325-.111 1.472-.242 1.585-1.422.124-1.283.153-1.3 2.2-1.305 3.193-.009 3.819-.289 4.11-1.839l.254-1.356h2.323c3.16 0 3.588-.22 3.588-1.843V182.8l3.7-.005c4.897-.008 5.426-.172 5.578-1.736l.122-1.259 7.17-.11c7.699-.117 8.23-.255 8.23-2.139V176.4h3.2 3.2l.03 20.7c.044 31.088-.102 29.3 2.394 29.3 1.313 0 1.576.134 1.576.806 0 1.708 2.155 2.416 7 2.3l4.4-.106.124-1.5c.121-1.458.168-1.5 1.7-1.5.867 0 1.576-.18 1.576-.4s.23-.4.511-.4c.619 0 2.689-2.287 2.689-2.971 0-.583 1.513-2.008 2.5-2.357.385-.136.7-.491.7-.79 0-.627 1.474-2.048 2.5-2.41.385-.136.706-.478.713-.759.023-.883 1.477-2.313 2.351-2.313.524 0 .841-.261.849-.7.018-.94 1.36-2.5 2.151-2.5a.64.64 0 0 0 .636-.636c0-.791 1.56-2.133 2.5-2.151.439-.008.7-.325.7-.849 0-.874 1.43-2.328 2.313-2.351.281-.007.623-.328.759-.713.362-1.026 1.783-2.5 2.41-2.5.299 0 .654-.315.79-.7.404-1.143 1.814-2.5 2.598-2.5.423 0 .736-.294.743-.7.018-.94 1.36-2.5 2.151-2.5.475 0 .636-.404.636-1.6V192h1.6c1.562 0 1.6-.033 1.6-1.4s.038-1.4 1.6-1.4c1.596 0 1.6-.004 1.6-1.576 0-1.532.042-1.579 1.5-1.7 1.419-.117 1.507-.205 1.624-1.624.121-1.458.168-1.5 1.7-1.5 1.572 0 1.576-.004 1.576-1.6 0-1.562.033-1.6 1.4-1.6s1.4-.038 1.4-1.6v-1.6h1.6c1.562 0 1.6-.033 1.6-1.4s.038-1.4 1.6-1.4c1.596 0 1.6-.004 1.6-1.576 0-1.532.042-1.579 1.5-1.7 1.414-.117 1.507-.209 1.623-1.601s.212-1.485 1.6-1.6 1.484-.209 1.601-1.623c.121-1.458.168-1.5 1.7-1.5 1.572 0 1.576-.004 1.576-1.6 0-1.562.033-1.6 1.4-1.6 1.333 0 1.4-.067 1.4-1.4 0-1.367.038-1.4 1.6-1.4 1.596 0 1.6-.004 1.6-1.576 0-1.532.042-1.579 1.5-1.7 1.414-.117 1.507-.209 1.623-1.601s.212-1.485 1.6-1.6 1.484-.212 1.6-1.6.212-1.485 1.6-1.6 1.484-.209 1.601-1.623.199-1.5 1.5-1.5c1.339 0 1.376-.043 1.376-1.6V142h1.609 1.609l-.109-7.5-.109-7.5-1.5-.124c-1.458-.121-1.5-.168-1.5-1.7 0-1.523-.045-1.576-1.349-1.576-1.264 0-1.365-.1-1.605-1.6-.241-1.512-.332-1.6-1.651-1.6-1.143 0-1.395-.149-1.395-.826 0-1.486-.753-2.374-2.014-2.374-1.04 0-1.186-.142-1.186-1.151 0-1.209-.774-2.147-1.67-2.026-1.223.166-1.53-.082-1.53-1.236 0-1.226-.122-1.328-2.1-1.761-.943-.207-1.1-.44-1.1-1.634 0-1.324-.068-1.392-1.4-1.392-1.148 0-1.4-.149-1.4-.826 0-1.486-.753-2.374-2.014-2.374-.932 0-1.186-.177-1.186-.826 0-1.486-.753-2.374-2.014-2.374-1.007 0-1.186-.155-1.186-1.029 0-1.316-.942-2.257-2.097-2.097-.743.104-.925-.086-1.028-1.074-.142-1.37-1.02-2.2-2.326-2.2-.721 0-.923-.257-1.024-1.3-.114-1.183-.258-1.311-1.602-1.423-1.388-.115-1.485-.212-1.6-1.6-.068-.813-.348-1.499-.623-1.527a54.64 54.64 0 0 0-1.229-.1c-.494-.034-.85-.535-1.1-1.55-.323-1.307-.538-1.516-1.671-1.625-1.119-.108-1.3-.278-1.3-1.22 0-1.39-.665-2.055-2.055-2.055-.942 0-1.112-.181-1.22-1.3-.109-1.129-.319-1.348-1.605-1.666-1.264-.312-1.497-.545-1.6-1.6-.104-1.075-.301-1.26-1.52-1.434-1.244-.178-1.422-.356-1.6-1.6-.11-.77-.425-1.422-.7-1.45a49.31 49.31 0 0 0-1.229-.1c-.494-.034-.85-.535-1.1-1.55-.318-1.286-.547-1.517-1.605-1.62s-1.288-.336-1.6-1.6c-.318-1.286-.537-1.496-1.666-1.605-1.139-.11-1.3-.269-1.3-1.286 0-1.311-1.161-2.182-2.39-1.792-.643.204-.779.007-.885-1.278-.115-1.4-.235-1.535-1.525-1.719-1.244-.178-1.422-.356-1.6-1.6-.11-.77-.425-1.422-.7-1.45a54.64 54.64 0 0 0-1.229-.1c-.494-.034-.85-.535-1.1-1.55-.318-1.286-.547-1.517-1.605-1.62s-1.288-.336-1.6-1.6c-.318-1.286-.537-1.496-1.666-1.605-1.065-.103-1.3-.297-1.3-1.072a2.21 2.21 0 0 0-2.203-2.203c-.775 0-.969-.235-1.072-1.3-.109-1.133-.318-1.348-1.625-1.671-1.146-.283-1.5-.57-1.5-1.22 0-1.674-.601-1.809-8.072-1.809h-7.113l-.245.977m17.463 29.663c.312.376 1.158.931 1.881 1.233s1.474.968 1.668 1.48.998 1.31 1.786 1.775S304 78.647 304 78.981s.72 1.063 1.6 1.619 1.6 1.273 1.6 1.595.548.868 1.217 1.214 1.425 1.084 1.678 1.64.963 1.271 1.576 1.588a4.74 4.74 0 0 1 1.718 1.741c.331.641.977 1.284 1.434 1.429s1.162.806 1.565 1.469 1.29 1.543 1.972 1.958 1.24 1.025 1.24 1.355.706 1.046 1.568 1.591 1.686 1.359 1.829 1.809.774 1.086 1.403 1.411 1.254.94 1.389 1.367.887 1.153 1.669 1.614 1.513 1.188 1.625 1.615.832 1.147 1.6 1.6 1.494 1.194 1.612 1.645.644.984 1.17 1.184 1.317.976 1.759 1.726 1.149 1.453 1.57 1.563 1.118.78 1.549 1.488 1.201 1.496 1.712 1.75 1.138.882 1.393 1.393 1.042 1.282 1.75 1.712 1.378 1.128 1.488 1.549.829 1.137 1.597 1.59 1.488 1.173 1.6 1.6.832 1.147 1.6 1.6 1.484 1.158 1.591 1.565.629.94 1.161 1.182 1.31 1.004 1.729 1.693 1.183 1.461 1.699 1.714 1.533 1.587 2.262 2.962l1.326 2.501-1.794 2.093c-.986 1.152-2.994 3.174-4.461 4.494s-2.787 2.685-2.932 3.033-1.362 1.609-2.704 2.802-3.411 3.215-4.6 4.495-3.149 3.26-4.357 4.399-3.278 3.236-4.6 4.659-2.917 3.044-3.546 3.6-2.068 1.96-3.2 3.119c-15.9 16.285-28.6 28.668-30.023 29.274-3.704 1.576-3.834 1.03-3.834-16.105 0-17.32-.046-17.769-1.906-18.546-.761-.318-2.116-1.063-3.01-1.654l-1.626-1.076h-11.829H263l-2.6 1.071c-1.43.588-3.77 1.188-5.2 1.332-5.038.506-7.344 1.047-8.458 1.984-.963.811-4.731 1.813-6.816 1.813-.335 0-1.076.433-1.648.962-.984.912-2.276 1.455-4.79 2.013-.611.135-1.504.697-1.983 1.249-.499.573-1.818 1.277-3.079 1.644s-2.641 1.103-3.217 1.716c-.555.591-1.864 1.326-2.91 1.633-1.173.344-1.991.842-2.136 1.3-.13.409-1.003 1.072-1.942 1.474s-1.813 1.011-1.944 1.353-1.012 1.109-1.958 1.704c-2.297 1.446-4.478 3.19-6.567 5.252-.947.935-1.989 1.7-2.315 1.7s-.828.495-1.115 1.1-1.096 1.37-1.798 1.7-1.382 1.015-1.514 1.527-.773 1.23-1.425 1.6-1.297 1.016-1.432 1.434-.9 1.423-1.699 2.231c-2.401 2.427-4.493 4.939-5.123 6.148-.798 1.535-4.699 5.46-5.426 5.46-2.828 0-3.161-13.517-.497-20.186.545-1.365 1.148-4.065 1.388-6.214.502-4.492.67-5.143 1.601-6.2.817-.928 1.431-2.81 1.795-5.498.149-1.105.648-2.364 1.193-3.011.515-.612 1.142-1.918 1.394-2.902.704-2.748 1.268-3.986 1.993-4.374.365-.195.97-1.328 1.345-2.518.411-1.305 1.159-2.588 1.882-3.233.661-.589 1.201-1.346 1.201-1.683 0-.871 1.541-3.781 2.001-3.781.212 0 .835-.887 1.384-1.97s1.347-2.082 1.773-2.217.955-.762 1.175-1.392.955-1.558 1.633-2.059 1.234-1.152 1.234-1.444c0-.747 10.521-11.318 11.263-11.318.335 0 .818-.459 1.074-1.021s1.057-1.268 1.781-1.57 1.556-1 1.85-1.549.943-1.102 1.442-1.227 1.666-.861 2.593-1.636 2.491-1.611 3.475-1.858 1.887-.703 2.005-1.01c.295-.77 2.105-1.649 4.413-2.144 1.065-.228 2.439-.848 3.054-1.376 1.164-1 1.626-1.143 5.741-1.778 1.503-.231 2.83-.699 3.344-1.178 1.075-1.002 3.354-1.515 9.147-2.06 2.521-.238 4.807-.618 5.082-.846 1.46-1.212 4.584-1.62 14.666-1.916l10.33-.302 1.67-1.67 1.67-1.67.2-15.694c.202-15.825.326-17.115 1.695-17.606.626-.224 1.591.251 2.338 1.151M45.363 90.205c-.137.546-.146 1.264-.019 1.594.194.504-.285.601-2.957.601H39.2v1.4c0 1.058-.171 1.406-.7 1.423-3.738.123-5.3.769-5.3 2.191 0 .709-.218.986-.776.986-.427 0-.883.172-1.013.383s-.501.281-.824.157c-.545-.21-.84 1.169-.625 2.925.033.267-.263.381-.693.269-.964-.252-2.189.965-1.937 1.926.106.408.043.648-.141.535-.329-.204-.877.999-.757 1.664.24 1.339-.091 1.741-1.434 1.741h-1.4v2.957c0 3.039-.394 3.738-1.957 3.475-.307-.051-.709.145-.894.437-.658 1.038-.429 214.731.23 214.731 1.672 0 2.621 1.781 2.621 4.917 0 3.189.505 4.283 1.977 4.283.531 0 .788.42.977 1.6.24 1.506.336 1.6 1.627 1.6s1.378.083 1.495 1.5.209 1.507 1.601 1.623 1.485.212 1.6 1.6.212 1.484 1.6 1.6 1.485.212 1.6 1.6c.118 1.414.192 1.482 1.726 1.595 1.294.096 1.734.347 2.282 1.3.393.685 1.012 1.182 1.473 1.182.437 0 .906.18 1.042.4s1.477.4 2.979.4h2.732l.254 1.352c.369 1.967-8.69 1.848 141.252 1.848l139.783-1.079c0-1.264 1.698-2.092 4.4-2.148 3.736-.076 4.496-.369 4.889-1.886.295-1.138.494-1.287 1.722-1.287 1.054 0 1.391-.169 1.396-.7.012-1.196 1.759-2.5 3.349-2.5 1.712 0 3.044-1.138 3.044-2.6 0-.796.201-1 .986-1 1.213 0 1.778-.976 2.09-3.611.216-1.828.322-1.989 1.3-1.989 1.512 0 2.022-.696 2.037-2.78.014-1.916 1.006-3.62 2.108-3.62.941 0 1.079-.901 1.079-7.033 0-5.751.003-5.767.92-5.767 1.895 0 1.88.16 1.88-19.847 0-20.597.036-20.153-1.643-20.153-1.141 0-1.157-.031-1.162-2.3-.003-1.265-.116-2.712-.251-3.217l-.246-.916-9.049.116c-8.721.113-9.051.146-9.106.917-.032.44-.077 10.205-.1 21.7l-.043 20.9h-.924c-1.936 0-2.249.687-2.367 5.193-.101 3.875-.17 4.196-.909 4.232-1.951.093-2.078.179-2.114 1.416-.042 1.508-.176 1.659-1.462 1.659-.996 0-1.91.693-1.791 1.358.27 1.502-.042 1.742-2.259 1.742-2.526 0-3.847.538-3.749 1.525a7.62 7.62 0 0 1 .021 1.175c-.037.399-27.217.5-134.446.5H54.8v-.826c0-1.364-.782-2.43-1.727-2.355-1.542.123-1.781 0-2.044-1.045-.234-.935-2.23-2.122-3.129-1.861-.165.048-.3-.17-.3-.484s-.495-.958-1.1-1.432c-.791-.619-1.156-1.329-1.3-2.529-.11-.919-.425-1.69-.7-1.718s-.95-.072-1.5-.1l-1-.05V223.4l.724-100.2c1.489 0 2.129-.948 2.36-3.496l.223-2.462 1.447-.121c1.357-.114 1.454-.214 1.57-1.621.118-1.421.197-1.5 1.513-1.5.961 0 1.464-.215 1.635-.7.771-2.185 1.587-2.5 6.498-2.506 5.099-.007 5.442-.107 5.841-1.695l.274-1.094 29.658-.102 29.657-.103.123-1.476c.111-1.337.243-1.488 1.4-1.6l1.277-.124.11-6.1.111-6.1h-1.386c-1.314 0-1.393-.079-1.511-1.5l-.124-1.5-38.894-.094-38.894-.094-.249.993" fill="#0b3c64"></path><path d="M294.895 71.889c-1.369.491-1.493 1.781-1.695 17.606l-.2 15.694-1.67 1.67-1.67 1.67-10.33.302c-10.082.296-13.206.704-14.666 1.916-.275.228-2.561.608-5.082.846-5.793.545-8.072 1.058-9.147 2.06-.514.479-1.841.947-3.344 1.178-4.115.635-4.577.778-5.741 1.778-.615.528-1.989 1.148-3.054 1.376-2.308.495-4.118 1.374-4.413 2.144-.118.307-1.02.762-2.005 1.01s-2.548 1.084-3.475 1.858-2.094 1.511-2.593 1.636-1.148.678-1.442 1.227-1.127 1.246-1.85 1.549-1.526 1.009-1.781 1.57-.739 1.021-1.074 1.021c-.742 0-11.263 10.571-11.263 11.318 0 .292-.555.942-1.234 1.444s-1.413 1.428-1.633 2.059-.749 1.257-1.175 1.392-1.224 1.133-1.773 2.217-1.172 1.97-1.384 1.97c-.46 0-2.001 2.91-2.001 3.781 0 .337-.54 1.094-1.201 1.683-.723.645-1.471 1.928-1.882 3.233-.375 1.19-.98 2.323-1.345 2.518-.725.388-1.289 1.626-1.993 4.374-.252.984-.879 2.29-1.394 2.902-.545.647-1.044 1.906-1.193 3.011-.364 2.688-.978 4.57-1.795 5.498-.931 1.057-1.099 1.708-1.601 6.2-.24 2.149-.843 4.849-1.388 6.214-2.664 6.669-2.331 20.186.497 20.186.727 0 4.628-3.925 5.426-5.46.63-1.209 2.722-3.721 5.123-6.148.799-.808 1.564-1.812 1.699-2.231s.779-1.064 1.432-1.434 1.294-1.09 1.425-1.6.809-1.195 1.514-1.527 1.511-1.095 1.798-1.7.789-1.1 1.115-1.1 1.368-.765 2.315-1.7c2.089-2.062 4.27-3.806 6.567-5.252.946-.595 1.827-1.362 1.958-1.704s1.006-.951 1.944-1.353 1.812-1.065 1.942-1.474c.145-.458.963-.956 2.136-1.3 1.046-.307 2.355-1.042 2.91-1.633.576-.613 1.958-1.35 3.217-1.716s2.58-1.071 3.079-1.644c.479-.552 1.372-1.114 1.983-1.249 2.514-.558 3.806-1.101 4.79-2.013.572-.529 1.313-.962 1.648-.962 2.085 0 5.853-1.002 6.816-1.813 1.114-.937 3.42-1.478 8.458-1.984 1.43-.144 3.77-.744 5.2-1.332l2.6-1.071h11.829 11.829l1.626 1.076c.894.591 2.249 1.336 3.01 1.654 1.86.777 1.906 1.226 1.906 18.546 0 17.135.13 17.681 3.834 16.105 1.423-.606 14.123-12.989 30.023-29.274 1.132-1.159 2.572-2.562 3.2-3.119s2.224-2.176 3.546-3.6 3.392-3.52 4.6-4.659 3.169-3.118 4.357-4.399 3.259-3.303 4.6-4.495 2.559-2.453 2.704-2.802 1.465-1.713 2.932-3.033 3.475-3.342 4.461-4.494l1.794-2.093-1.326-2.501c-.729-1.375-1.747-2.708-2.262-2.962s-1.28-1.025-1.699-1.714-1.197-1.451-1.729-1.693-1.054-.774-1.161-1.182-.823-1.112-1.591-1.565-1.488-1.173-1.6-1.6-.832-1.147-1.6-1.6-1.487-1.169-1.597-1.59-.78-1.118-1.488-1.549-1.496-1.201-1.75-1.712-.882-1.138-1.393-1.393-1.282-1.042-1.712-1.75-1.128-1.378-1.549-1.488-1.128-.813-1.57-1.563-1.234-1.527-1.759-1.726-1.052-.733-1.17-1.184-.844-1.192-1.612-1.645-1.488-1.173-1.6-1.6-.843-1.153-1.625-1.615-1.533-1.188-1.669-1.614-.76-1.042-1.389-1.367-1.26-.96-1.403-1.411-.966-1.265-1.829-1.809-1.568-1.26-1.568-1.591-.558-.94-1.24-1.355-1.57-1.296-1.972-1.958-1.107-1.323-1.565-1.469-1.103-.788-1.434-1.429a4.74 4.74 0 0 0-1.718-1.741c-.613-.317-1.322-1.032-1.576-1.588s-1.008-1.294-1.678-1.64-1.217-.893-1.217-1.214-.72-1.039-1.6-1.595-1.6-1.284-1.6-1.619-.644-.988-1.432-1.453-1.591-1.264-1.786-1.775-.945-1.178-1.668-1.48-1.569-.857-1.881-1.233c-.747-.9-1.712-1.375-2.338-1.151m2.81 2.911c.465 0 41.628 40.459 51.895 51.008l3.8 3.854c2.273 2.3 3.339 3.71 3.682 4.868l.481 1.632-2.081 2.217c-10.043 10.699-57.131 57.379-58.482 57.975-2.608 1.151-2.573 1.354-2.587-14.781-.017-18.391.102-17.939-5.569-21.167-2.698-1.537-27.244-.93-32.149.794-1.165.41-3.803 1.037-5.863 1.394s-4.604 1.085-5.653 1.616-3.317 1.345-5.043 1.807-3.419 1.096-3.764 1.408-1.649.92-2.897 1.349-2.856 1.219-3.572 1.754-1.997 1.195-2.845 1.467-1.899.906-2.337 1.41-1.634 1.23-2.658 1.616-2.534 1.258-3.354 1.94c-3.402 2.827-4.503 3.664-6.372 4.842-4.303 2.714-18.781 17.075-21.284 21.113-2.138 3.449-5.056 6.147-5.715 5.284-.809-1.061-.51-10.562.435-13.8.353-1.21.996-4.45 1.429-7.2.851-5.405 1.333-7.399 1.975-8.173.227-.272.858-2.215 1.404-4.316s1.36-4.444 1.809-5.205 1.08-2.268 1.401-3.35 1.035-2.578 1.587-3.326 1.211-1.989 1.465-2.76 1.069-2.195 1.81-3.166 1.347-2.042 1.347-2.38c0-.917 4.225-6.652 9.169-12.445 2.841-3.33 9.475-9.992 12.431-12.484a98.35 98.35 0 0 0 3.084-2.756c.926-.866 2.096-1.7 2.6-1.853s1.504-.719 2.223-1.258 2.137-1.346 3.151-1.795 2.667-1.337 3.672-1.975 2.084-1.158 2.398-1.158 1.944-.617 3.622-1.37 4.186-1.574 5.575-1.822 3.819-.967 5.4-1.596c2.068-.822 4.391-1.32 8.275-1.773 2.97-.347 6.39-.906 7.6-1.243 1.326-.369 5.617-.783 10.8-1.042 9.987-.5 11.257-.848 13.071-3.589l1.129-1.705.211-15.03c.226-16.069.331-17 1.766-15.652.481.452 1.168.822 1.528.822" fill="#04818e"></path><path d="M294.962 73.878c-.187.397-.435 7.485-.551 15.752l-.211 15.03-1.126 1.701c-.687 1.037-1.781 2.013-2.8 2.498-1.373.653-1.458.75-.474.54 1.378-.294 3.171-1.855 4.134-3.599.571-1.034.695-3.278.897-16.2.264-16.998.137-15.352 1.143-14.814.425.228 1.176.414 1.668.414s1.269.315 1.727.7c.83.699.83.699.069-.2-.419-.495-1.127-.9-1.574-.9s-1.206-.37-1.687-.822c-.83-.779-.892-.784-1.215-.1M300 76.935c0 .151 1.737 1.938 3.859 3.97s4.237 4.123 4.7 4.646c.978 1.106 4.968 5.071 6.316 6.276.509.454 2.457 2.434 4.329 4.4s3.898 3.892 4.501 4.283-4.007-4.38-10.245-10.6C301.116 77.6 300 76.525 300 76.935m25.115 25.281c.233.449.867 1.053 1.41 1.344a4.29 4.29 0 0 1 1.499 1.484c.281.526.637.956.79.956s4.578 4.272 9.832 9.492l8.954 8.701c-1.838-2.425-23.147-23.252-22.485-21.977m-47.715 7.811c-3.294.178-7 .646-9 1.135-1.87.458-4.03.862-4.8.899-1.335.064-1.344.074-.2.22.66.085 3.09-.219 5.4-.675s7.44-1.011 11.4-1.233 7.38-.473 7.6-.557c.594-.227-4.062-.133-10.4.211m-18.095 2.66c.609.092 1.509.09 2-.005s-.005-.171-1.105-.168-1.503.081-.895.173m-5.105.968c-1.1.45-2.72 1.059-3.6 1.355s-1.271.549-.868.563 1.842-.412 3.2-.948 3.098-1.149 3.868-1.363c1.139-.317 1.213-.393.4-.407-.55-.01-1.9.35-3 .8m-8.8 2.521c-2.29.747-6.117 2.615-5.368 2.62.348.002 1.518-.453 2.6-1.012s2.958-1.263 4.168-1.566 1.75-.554 1.2-.558-1.72.229-2.6.516m-9.022 3.75c-.978.62-2.768 1.597-3.978 2.172-2.318 1.101-4.513 2.678-3.749 2.693.248.005.698-.291 1-.657s1.809-1.268 3.349-2.004c3.922-1.875 6.431-3.33 5.741-3.33-.321 0-1.385.507-2.363 1.126m-9.775 5.36c-.438.254-1.376 1.014-2.084 1.688a82.35 82.35 0 0 1-2.804 2.514c-3.132 2.661-9.683 9.236-12.546 12.591-4.688 5.493-9.169 11.521-9.169 12.335 0 .564 1.405-1.287 3.046-4.014.596-.99 1.57-2.34 2.166-3s1.247-1.511 1.447-1.892c.379-.72 4.339-5.13 8.141-9.064 2.524-2.612 11.406-10.481 12.6-11.163.44-.251.62-.457.4-.457s-.758.208-1.197.462m122.595.56c.548.635 2.306 2.445 3.906 4.022 1.938 1.91 3.109 3.436 3.509 4.57l.601 1.703-18.741 18.829-29.348 29.527c-10.84 10.932-13.422 12.992-14.093 11.241-.128-.332-.245-6.934-.26-14.671s-.151-14.376-.3-14.754-.225 6.012-.168 14.2c.119 16.924.123 16.949 2.544 15.939 1.326-.553 48.497-47.273 58.634-58.073l2.081-2.217-.481-1.632c-.353-1.193-1.367-2.496-3.782-4.856-1.815-1.774-3.3-3.41-3.3-3.636s-.405-.621-.9-.878c-.871-.453-.868-.431.098.686m-150.593 31.069c-.657.927-1.503 2.47-1.878 3.429s-.956 2.046-1.29 2.415c-.709.784-1.85 3.386-1.809 4.128.016.282.276-.161.579-.986s.988-2.084 1.522-2.8 1.184-1.964 1.444-2.774 1.001-2.139 1.649-2.955c.993-1.249 1.477-2.217 1.078-2.157-.055.009-.638.774-1.295 1.7m70.895 2.584a275.42 275.42 0 0 0 10.6 0c2.915-.068.53-.124-5.3-.124s-8.215.056-5.3.124m-10.5.512c-.88.177-2.14.542-2.8.811s-2.1.733-3.2 1.033l-2 .544 1.715-.207c.943-.113 2.473-.485 3.4-.826s3.125-.86 4.885-1.153c2.528-.422 2.822-.533 1.4-.53a21.08 21.08 0 0 0-3.4.328m28.346.009c1.07.18 2.33.676 2.8 1.103s1.274.994 1.787 1.259 1.18 1.052 1.484 1.749c.376.866.557 1.027.567.508.037-1.801-4.743-5.083-7.271-4.992-1.073.038-.957.107.633.373m-42.546 3.835c-1.21.576-2.92 1.282-3.8 1.569s-1.24.53-.8.54 1.88-.447 3.2-1.013l3.8-1.573c.914-.355 1.122-.548.6-.557-.44-.007-1.79.458-3 1.034m-10 3.78c-.77.411-2.21 1.114-3.2 1.563-2.503 1.134-5.307 2.938-4 2.573.55-.153 1.72-.777 2.6-1.385s2.531-1.405 3.669-1.769 2.285-.921 2.549-1.239c.623-.751.118-.671-1.618.257m-42.302 1.642c-.496.909-.832 1.723-.746 1.809.25.25 1.928-2.647 1.781-3.074-.073-.213-.539.356-1.035 1.265m-1.858 5.201c-.358 1.607-.939 3.462-1.292 4.122-.816 1.525-1.747 4.898-1.711 6.2.014.55.266-.1.558-1.445s.886-3.144 1.319-4c.798-1.575 2.262-7.312 1.947-7.627-.094-.094-.464 1.143-.821 2.75m33.515-1.243c-1.989 1.579-1.977 1.565-1.403 1.565.266 0 .924-.44 1.462-.978s1.295-1.162 1.682-1.388.504-.415.259-.422-1.145.544-2 1.223m-4.854 2.879c-.825.723-2.278 1.848-3.228 2.5-4.318 2.967-5.397 3.774-7.584 5.676-1.283 1.116-3.403 3.058-4.711 4.316s-2.727 2.531-3.154 2.831-.672.649-.545.776 1.315-.814 2.639-2.091c4.597-4.434 7.666-7.087 9.629-8.325 1.085-.684 2.62-1.773 3.41-2.42l2.905-2.377c.807-.66 1.933-1.41 2.502-1.668.74-.333.836-.476.337-.5-.384-.017-1.374.559-2.2 1.282M187.04 188.3c-.144 1.265-.624 3.65-1.067 5.3-.45 1.679-.873 4.761-.961 7l-.158 4 .331-3.4c.182-1.87.7-4.93 1.153-6.8.841-3.48 1.524-8.4 1.165-8.4-.11 0-.318 1.035-.463 2.3m11.077 6c-2.803 2.772-6.26 6.687-7.329 8.3-.582.88-1.781 2.32-2.662 3.2s-1.696 1.87-1.809 2.2c-.321.93-.837.158-1.141-1.707l-.276-1.693-.05 1.424c-.134 3.817 2.832 2.332 6.203-3.108.905-1.46 4.905-6.029 7.514-8.583.861-.843 1.454-1.533 1.316-1.533s-.932.675-1.766 1.5" fill="#04949c"></path><path d="M295.132 74.486c-.037.063-.172 6.864-.3 15.114-.25 16.186-.197 15.805-2.544 18.285-1.553 1.642-3.246 1.986-12.288 2.497-3.85.218-8.8.746-11 1.174s-5.44.898-7.2 1.046c-3.722.311-5.691.741-8.231 1.799-1.007.419-3.445 1.114-5.416 1.544s-4.208 1.145-4.969 1.587-2.194 1.011-3.184 1.266a13.17 13.17 0 0 0-3.254 1.407c-.799.52-2.62 1.474-4.045 2.12s-2.719 1.381-2.874 1.631-.908.718-1.672 1.037c-1.48.618-9.688 7.656-13.355 11.451-3.769 3.901-7.767 8.348-8.192 9.113-.225.404-.913 1.343-1.531 2.088-1.805 2.176-3.784 5.2-4.825 7.371-.532 1.109-1.247 2.248-1.589 2.532s-.93 1.356-1.308 2.384-1.132 2.475-1.678 3.216-1.326 2.424-1.735 3.74-1.08 2.869-1.489 3.452-1.052 2.465-1.43 4.182-1.128 4.083-1.666 5.259c-.63 1.377-1.253 4.035-1.751 7.478-.425 2.937-1.142 6.892-1.592 8.787-1.395 5.874-.881 16.176.578 11.579.136-.427.869-1.322 1.63-1.99s1.888-1.984 2.505-2.925c1.181-1.801 4.705-5.785 7.57-8.558.937-.907 1.704-1.807 1.706-2s.631-.78 1.4-1.304 1.397-1.077 1.397-1.231c0-.394 7.575-7.048 9.749-8.563l3.524-2.44c.95-.652 2.403-1.777 3.228-2.5s1.82-1.314 2.209-1.314 1.334-.51 2.099-1.134 2.381-1.62 3.591-2.213a115.87 115.87 0 0 0 3.6-1.845c2.782-1.521 7.441-3.498 9.349-3.966 1.072-.263 2.844-.932 3.938-1.486s3.797-1.353 6.005-1.774 4.969-1.122 6.135-1.558c4.362-1.632 29.281-2.307 32.711-.886 5.448 2.256 5.862 3.766 5.862 21.391 0 7.593.104 14.077.232 14.409.671 1.751 3.253-.309 14.093-11.241l29.348-29.527 18.741-18.829-.585-1.658c-.466-1.321-3.225-4.282-13.58-14.571L326.944 104a18.3 18.3 0 0 1-1.198-1.2c-.293-.33-.977-1.05-1.522-1.6l-4.707-4.768-4.642-4.6c-1.382-1.243-5.356-5.195-6.316-6.281-.463-.523-2.578-2.614-4.7-4.646S300 77.056 300 76.867c0-.637-1.457-1.667-2.358-1.667-.492 0-1.243-.186-1.668-.414s-.805-.363-.842-.3m4.149 3.117c.375.658 1.126 1.4 1.67 1.647s1.096.883 1.229 1.412c.141.564.798 1.227 1.592 1.605.742.354 1.545 1.072 1.783 1.594s.898 1.162 1.466 1.421 1.278 1.06 1.579 1.78c.341.816.921 1.403 1.54 1.559.596.149 1.191.731 1.493 1.458.289.698.957 1.368 1.579 1.585a3.02 3.02 0 0 1 1.533 1.374c.25.55.986 1.304 1.636 1.677s1.284 1.089 1.41 1.593c.13.517.82 1.196 1.588 1.563.747.356 1.445.976 1.55 1.378s.82 1.102 1.588 1.555 1.62 1.361 1.891 2.015.893 1.292 1.382 1.414 1.18.834 1.538 1.585c.367.77 1.046 1.461 1.564 1.591.504.126 1.23.778 1.615 1.449s1.06 1.313 1.5 1.428 1.082.801 1.425 1.525c.349.735 1.141 1.529 1.796 1.801.645.267 1.172.677 1.172.911 0 .616 1.648 2.277 2.259 2.277.286 0 .798.537 1.137 1.193s1.132 1.459 1.76 1.784 1.237.954 1.353 1.397.84 1.177 1.608 1.63 1.49 1.18 1.604 1.614.787 1.034 1.496 1.332c.8.337 1.496 1.033 1.833 1.833.298.709.897 1.383 1.332 1.496s1.152.82 1.594 1.57 1.233 1.526 1.758 1.726c1.88.715 2.047 3.319.318 4.947-.799.752-1.85 1.797-2.336 2.322a50.89 50.89 0 0 1-1.503 1.556c-.34.33-1.774 1.77-3.186 3.2l-2.989 3c-.232.22-10.692 10.721-23.245 23.336l-22.824 22.936-.985-.645-.984-.645V179.84c0-10.354-.099-12.624-.569-13.014-.313-.26-.693-1.211-.846-2.113-.16-.95-.671-1.993-1.213-2.477l-2.3-2.094c-2.96-2.729-35.437-2.372-38.66.425-.543.47-2.03.803-7.272 1.625-.803.126-2.153.701-3 1.277-1.543 1.049-2.65 1.439-5.428 1.91-.819.139-1.989.671-2.6 1.183s-2.11 1.219-3.331 1.571-2.648 1.1-3.173 1.659-1.63 1.198-2.453 1.42-2.231 1.016-3.126 1.764-2.18 1.481-2.854 1.63c-.738.162-1.399.648-1.66 1.22-.238.523-.991 1.138-1.674 1.367s-2.037 1.134-3.009 2.012-1.93 1.595-2.129 1.595c-.351 0-2.054 1.496-5.044 4.432-.803.788-1.781 1.55-2.174 1.694s-1.021.794-1.395 1.446-1.079 1.368-1.566 1.59-1.157.928-1.489 1.57-.966 1.261-1.409 1.377-1.17.828-1.615 1.583-1.252 1.609-1.791 1.897-1.156 1.026-1.369 1.637-.765 1.314-1.225 1.56-1.287 1.161-1.837 2.031c-.852 1.35-1.204 1.583-2.394 1.583-1.164 0-1.395.143-1.395.867 0 .476-.11.757-.244.622s.216-2.549.778-5.366a106.72 106.72 0 0 0 1.428-10.304c.313-3.988.58-5.415 1.159-6.2 1.036-1.403 1.611-3.305 2.045-6.761.267-2.124.613-3.197 1.249-3.873.483-.515 1.209-2.126 1.612-3.579s1.178-3.172 1.723-3.819 1.267-2.125 1.605-3.282c.342-1.171.969-2.323 1.412-2.597s1.07-1.411 1.404-2.534c.343-1.156 1.029-2.373 1.582-2.809.538-.422 1.356-1.55 1.819-2.506s1.374-2.213 2.026-2.794 1.295-1.498 1.431-2.039.694-1.277 1.24-1.635 1.171-1.16 1.388-1.784c.239-.683.779-1.23 1.362-1.376.532-.133 1.243-.778 1.582-1.433s1.053-1.477 1.587-1.827 1.335-1.252 1.778-2.004 1.071-1.367 1.393-1.367.967-.534 1.432-1.187 1.332-1.418 1.927-1.701 1.258-.915 1.472-1.403.896-1.096 1.514-1.352a5.65 5.65 0 0 0 1.911-1.467c.433-.551 1.732-1.438 2.886-1.971s2.549-1.386 3.099-1.896 1.679-1.047 2.509-1.194 2.099-.788 2.822-1.422c.87-.764 2.235-1.367 4.04-1.786 1.521-.353 3.223-1.05 3.85-1.577.825-.694 1.846-1.019 3.851-1.226 4.003-.413 5.714-.858 7.023-1.825.918-.679 2.077-.942 5.436-1.232l11.469-.989c10.684-.92 16.905-1.909 19.13-3.041 1.559-.793 3.042-3.192 3.061-4.951.005-.451.234-1.045.509-1.319.368-.368.555-3.685.71-12.58.244-14.067.819-16.685 2.871-13.078" fill="#01875f"></path></svg>
  <svg fill="none" viewBox="0 0 42 42" id="Icons" xmlns="http://www.w3.org/2000/svg"><path opacity=".1" d="M0 5a5 5 0 015-5h32a5 5 0 015 5v32a5 5 0 01-5 5H5a5 5 0 01-5-5V5z" fill="#C72D36"/><path d="M28.25 33.25a6 6 0 100-12 6 6 0 000 12zM28.25 24.25v6M28.25 30.25L30.5 28M28.25 30.25L26 28" stroke="#C72D36" stroke-width="1.5" stroke-linecap="round" stroke-linejoin="round"/><path d="M19.25 30.25h-6a1.5 1.5 0 01-1.5-1.5v-16.5a1.5 1.5 0 011.5-1.5h10.629a1.5 1.5 0 011.06.439l2.872 2.872a1.5 1.5 0 01.439 1.06v3.129" stroke="#C72D36" stroke-width="1.5" stroke-linecap="round" stroke-linejoin="round"/></svg><svg fill="none" viewBox="0 0 42 42" id="Subscription" xmlns="http://www.w3.org/2000/svg"><rect opacity=".1" width="42" height="42" rx="5" fill="#5847DF"/><g clip-path="url(#acclip0)" fill="#5948DF"><path d="M34.287 18.646a.608.608 0 00-.85.101l-.648.81c-.769-5.404-5.404-9.554-10.99-9.554-2.976 0-5.769 1.154-7.854 3.28a.587.587 0 000 .85.587.587 0 00.85 0 9.78 9.78 0 017.004-2.915c5 0 9.149 3.744 9.796 8.581l-.951-.748a.608.608 0 00-.85.1.608.608 0 00.101.85l2.024 1.62c.02.02.04.04.06.04 0 0 .021 0 .021.02.02.021.06.021.081.041.02.02.06.02.101.02H32.303c.041 0 .082 0 .122-.02.02 0 .02 0 .04-.02.02 0 .061-.02.081-.02.02 0 .02-.02.041-.02.02-.02.06-.02.08-.04.041-.021.062-.061.102-.102l1.62-2.024a.609.609 0 00-.102-.85z"/><path d="M22.912 21.743h1.559a.609.609 0 00.607-.608.609.609 0 00-.607-.607h-1.539a1.22 1.22 0 00-.506-.506l-.02-2.874a.597.597 0 00-.607-.607.609.609 0 00-.607.607l.02 2.854a1.255 1.255 0 00-.668 1.113 1.27 1.27 0 001.275 1.275c.466.02.87-.243 1.093-.647z"/><path d="M28.397 21.135c0-3.623-2.955-6.578-6.598-6.578S15.2 17.512 15.2 21.135s2.976 6.578 6.599 6.578 6.598-2.955 6.598-6.578zm-11.982 0c0-2.955 2.408-5.363 5.384-5.363 2.975 0 5.384 2.408 5.384 5.363 0 2.955-2.43 5.364-5.384 5.364-2.955 0-5.384-2.409-5.384-5.364z"/><path d="M21.799 32.268c2.975 0 5.768-1.154 7.853-3.28a.587.587 0 000-.85.587.587 0 00-.85 0 9.78 9.78 0 01-7.003 2.915c-5 0-9.149-3.744-9.797-8.582l.952.75c.121.08.243.14.384.14.183 0 .365-.08.466-.222a.608.608 0 00-.101-.85l-2.024-1.62a.441.441 0 00-.102-.06s-.02 0-.02-.02c-.02 0-.04-.02-.06-.02h-.061c-.02 0-.04-.02-.081-.02h-.142c-.04 0-.08.02-.101.02h-.02c-.02 0-.061.02-.081.04-.02 0-.02.02-.04.02-.021.02-.041.02-.062.04l-.02.021c-.02.02-.06.04-.08.081l-1.62 2.024a.608.608 0 00.101.85.608.608 0 00.85-.101l.648-.81c.79 5.384 5.424 9.534 11.01 9.534z"/></g><defs><clipPath id="acclip0"><path fill="#fff" transform="translate(9 10)" d="M0 0h26v22.75H0z"/></clipPath></defs></svg><svg fill="none" viewBox="0 0 42 42" id="Team" xmlns="http://www.w3.org/2000/svg"><rect opacity=".1" width="42" height="42" rx="5" fill="#2D7DC7"/><path d="M14.5 17.25a2.25 2.25 0 100-4.5 2.25 2.25 0 000 4.5zM14.5 18.75a3.75 3.75 0 00-3.75 3.75v2.25h1.5l.75 6h3M29.5 17.25a2.25 2.25 0 100-4.5 2.25 2.25 0 000 4.5zM29.5 18.75a3.75 3.75 0 013.75 3.75v2.25h-1.5l-.75 6h-3M22 15.75a3 3 0 100-6 3 3 0 000 6zM27.25 22.5a5.25 5.25 0 10-10.5 0v2.25H19l.75 7.5h4.5l.75-7.5h2.25V22.5z" stroke="#2D7DC7" stroke-width="1.5" stroke-linecap="round" stroke-linejoin="round"/></svg><svg viewBox="0 0 24 24" fill="currentColor" id="account" xmlns="http://www.w3.org/2000/svg"><path d="M12 4c2.21 0 4 1.79 4 4s-1.79 4-4 4-4-1.79-4-4 1.79-4 4-4m0 10c4.42 0 8 1.79 8 4v2H4v-2c0-2.21 3.58-4 8-4z"/></svg><svg viewBox="0 0 24 24" fill="currentColor" id="account-alert" xmlns="http://www.w3.org/2000/svg"><path d="M10 4c2.21 0 4 1.79 4 4s-1.79 4-4 4-4-1.79-4-4 1.79-4 4-4m0 10c4.42 0 8 1.79 8 4v2H2v-2c0-2.21 3.58-4 8-4m10-2V7h2v5h-2m0 4v-2h2v2h-2z"/></svg><svg viewBox="0 0 24 24" fill="currentColor" id="account-box-outline" xmlns="http://www.w3.org/2000/svg"><path d="M19 19H5V5h14m0-2H5c-1.1 0-2 .9-2 2v14c0 1.1.9 2 2 2h14c1.1 0 2-.9 2-2V5a2 2 0 00-2-2m-2.5 13.25c0-1.5-3-2.25-4.5-2.25s-4.5.75-4.5 2.25V17h9M12 12.25c1.24 0 2.25-1.01 2.25-2.25S13.24 7.75 12 7.75 9.75 8.76 9.75 10s1.01 2.25 2.25 2.25z"/></svg><svg viewBox="0 0 24 24" fill="currentColor" id="account-details" xmlns="http://www.w3.org/2000/svg"><path d="M7.5 15c1.13 0 2.32.26 3.59.77 1.26.52 1.91 1.18 1.91 2V20H2v-2.23c0-.82.65-1.48 1.91-2C5.18 15.26 6.38 15 7.5 15m5.5-2h9v2h-9v-2m0-4h9v2h-9V9m0-4h9v2h-9V5M7.5 8a2.5 2.5 0 010 5 2.5 2.5 0 010-5z"/></svg><svg viewBox="0 0 24 24" fill="currentColor" id="account-edit" xmlns="http://www.w3.org/2000/svg"><path d="M21.7 13.35l-1 1-2.05-2.05 1-1a.55.55 0 01.77 0l1.28 1.28c.21.21.21.56 0 .77M12 18.94l6.06-6.06 2.05 2.05L14.06 21H12v-2.06M12 14c-4.42 0-8 1.79-8 4v2h6v-1.89l4-4c-.66-.08-1.33-.11-2-.11m0-10C9.79 4 8 5.79 8 8s1.79 4 4 4 4-1.79 4-4-1.79-4-4-4z"/></svg><svg viewBox="0 0 24 24" fill="currentColor" id="account-group" xmlns="http://www.w3.org/2000/svg"><path d="M12 6c-1.66 0-3 1.34-3 3s1.34 3 3 3 3-1.34 3-3-1.34-3-3-3M6 8.17a2.5 2.5 0 000 5c.88 0 1.65-.46 2.09-1.14C7.42 11.18 7 10.15 7 9c0-.2 0-.4.04-.6-.32-.15-.67-.23-1.04-.23m12 0c-.37 0-.72.08-1.04.23.04.2.04.4.04.6 0 1.15-.42 2.18-1.09 3.03A2.49 2.49 0 0018 13.17a2.5 2.5 0 000-5M12 14c-2 0-6 1-6 3v2h12v-2c0-2-4-3-6-3m-7.33.97C3 15.26 1 16.04 1 17.33V19h3v-2c0-.78.29-1.47.67-2.03m14.66 0c.38.56.67 1.25.67 2.03v2h3v-1.67c0-1.29-2-2.07-3.67-2.36z"/></svg><svg viewBox="0 0 24 24" fill="currentColor" id="account-multiple" xmlns="http://www.w3.org/2000/svg"><path d="M16 13c-.29 0-.62 0-.97.05C16.19 13.89 17 15 17 16.5V19h6v-2.5c0-2.33-4.67-3.5-7-3.5m-8 0c-2.33 0-7 1.17-7 3.5V19h14v-2.5c0-2.33-4.67-3.5-7-3.5m0-2c1.66 0 3-1.34 3-3S9.66 5 8 5 5 6.34 5 8s1.34 3 3 3m8 0c1.66 0 3-1.34 3-3s-1.34-3-3-3-3 1.34-3 3 1.34 3 3 3z"/></svg><svg viewBox="0 0 24 24" fill="currentColor" id="account-settings" xmlns="http://www.w3.org/2000/svg"><path d="M12 4c2.21 0 4 1.79 4 4s-1.79 4-4 4-4-1.79-4-4 1.79-4 4-4m0 10c4.42 0 8 1.79 8 4v2H4v-2c0-2.21 3.58-4 8-4m-5 8h2v2H7v-2m4 0h2v2h-2v-2m4 0h2v2h-2v-2z"/></svg><svg viewBox="0 0 24 24" fill="currentColor" id="add-to-cart" xmlns="http://www.w3.org/2000/svg"><path d="M18.192 12.385A5.808 5.808 0 1024 18.192a5.814 5.814 0 00-5.808-5.807zm2.208 6.557h-1.208a.25.25 0 00-.25.25V20.4a.75.75 0 01-1.5 0v-1.208a.25.25 0 00-.25-.25H15.98a.75.75 0 110-1.5h1.212a.25.25 0 00.25-.25v-1.211a.75.75 0 011.5 0v1.211a.25.25 0 00.25.25H20.4a.75.75 0 110 1.5zM12.657 14a1 1 0 00-1-1H8.239A.25.25 0 018 12.808l-1.15-5a.25.25 0 01.239-.308H20.28a.5.5 0 01.474.658l-.749 2.248a1.001 1.001 0 101.9.633l1-3A1.928 1.928 0 0021.072 5.5H6.514a.249.249 0 01-.243-.194l-.878-3.819A1.922 1.922 0 003.515 0H1a1 1 0 000 2l2.24-.055a.252.252 0 01.25.194l3.357 14.6a.248.248 0 01-.107.265 2.251 2.251 0 102.286-.1.256.256 0 01-.126-.165l-.33-1.437A.25.25 0 018.814 15h2.843a1 1 0 001-1z"/></svg><svg viewBox="0 0 24 24" fill="currentColor" id="alert" xmlns="http://www.w3.org/2000/svg"><path d="M13 14h-2v-4h2m0 8h-2v-2h2M1 21h22L12 2 1 21z"/></svg><svg viewBox="0 0 24 24" fill="currentColor" id="apple" xmlns="http://www.w3.org/2000/svg"><path d="M18.71 19.5c-.83 1.24-1.71 2.45-3.05 2.47-1.34.03-1.77-.79-3.29-.79-1.53 0-2 .77-3.27.82-1.31.05-2.3-1.32-3.14-2.53C4.25 17 2.94 12.45 4.7 9.39c.87-1.52 2.43-2.48 4.12-2.51 1.28-.02 2.5.87 3.29.87.78 0 2.26-1.07 3.81-.91.65.03 2.47.26 3.64 1.98-.09.06-2.17 1.28-2.15 3.81.03 3.02 2.65 4.03 2.68 4.04-.03.07-.42 1.44-1.38 2.83M13 3.5c.73-.83 1.94-1.46 2.94-1.5.13 1.17-.34 2.35-1.04 3.19-.69.85-1.83 1.51-2.95 1.42-.15-1.15.41-2.35 1.05-3.11z"/></svg><svg viewBox="0 0 24 24" fill="currentColor" id="application" xmlns="http://www.w3.org/2000/svg"><path d="M19 4a2 2 0 012 2v12c0 1.1-.9 2-2 2H5a2 2 0 01-2-2V6c0-1.1.9-2 2-2h14m0 14V8H5v10h14z"/></svg><svg viewBox="0 0 24 24" fill="currentColor" id="apps" xmlns="http://www.w3.org/2000/svg"><path d="M16 20h4v-4h-4m0-2h4v-4h-4m-6-2h4V4h-4m6 4h4V4h-4m-6 10h4v-4h-4m-6 4h4v-4H4m0 10h4v-4H4m6 4h4v-4h-4M4 8h4V4H4v4z"/></svg><svg viewBox="0 0 24 24" fill="currentColor" id="archive" xmlns="http://www.w3.org/2000/svg"><path d="M3 3h18v4H3V3m1 5h16v13H4V8m5.5 3a.5.5 0 00-.5.5V13h6v-1.5a.5.5 0 00-.5-.5h-5z"/></svg><svg viewBox="0 0 24 24" fill="currentColor" id="arrow-down" xmlns="http://www.w3.org/2000/svg"><path d="M11 4h2v12l5.5-5.5 1.42 1.42L12 19.84l-7.92-7.92L5.5 10.5 11 16V4z"/></svg><svg viewBox="0 0 24 24" fill="currentColor" id="arrow-down-bold-circle" xmlns="http://www.w3.org/2000/svg"><path d="M12 2c5.52 0 10 4.48 10 10s-4.48 10-10 10S2 17.52 2 12 6.48 2 12 2m0 15l5-5h-3V8h-4v4H7l5 5z"/></svg><svg viewBox="0 0 24 24" fill="currentColor" id="arrow-down-circle" xmlns="http://www.w3.org/2000/svg"><path d="M11 6v8l-3.5-3.5-1.42 1.42L12 17.84l5.92-5.92-1.42-1.42L13 14V6h-2m1 16A10 10 0 012 12 10 10 0 0112 2a10 10 0 0110 10 10 10 0 01-10 10z"/></svg><svg viewBox="0 0 24 24" fill="currentColor" id="arrow-right" xmlns="http://www.w3.org/2000/svg"><path d="M4 11v2h12l-5.5 5.5 1.42 1.42L19.84 12l-7.92-7.92L10.5 5.5 16 11H4z"/></svg><svg viewBox="0 0 24 24" fill="currentColor" id="arrow-up" xmlns="http://www.w3.org/2000/svg"><path d="M13 20h-2V8l-5.5 5.5-1.42-1.42L12 4.16l7.92 7.92-1.42 1.42L13 8v12z"/></svg><svg viewBox="0 0 24 24" fill="currentColor" id="attachment" xmlns="http://www.w3.org/2000/svg"><path d="M7.5 18C4.46 18 2 15.54 2 12.5S4.46 7 7.5 7H18c2.21 0 4 1.79 4 4s-1.79 4-4 4H9.5a2.5 2.5 0 010-5H17v1.5H9.5c-.55 0-1 .45-1 1s.45 1 1 1H18a2.5 2.5 0 000-5H7.5c-2.21 0-4 1.79-4 4s1.79 4 4 4H17V18H7.5z"/></svg><svg viewBox="0 0 24 24" fill="currentColor" id="attention" xmlns="http://www.w3.org/2000/svg"><path d="M24 12a4.8 4.8 0 00-2.207-4.057 4.831 4.831 0 00-5.736-5.736 4.831 4.831 0 00-8.112 0 4.831 4.831 0 00-5.737 5.736 4.832 4.832 0 000 8.114 4.831 4.831 0 005.736 5.736 4.831 4.831 0 008.112 0 4.832 4.832 0 005.736-5.737A4.8 4.8 0 0024 12zM12 6a1 1 0 011 1v5.5a1 1 0 01-2 0V7a1 1 0 011-1zm0 9a1.5 1.5 0 11-1.5 1.5A1.5 1.5 0 0112 15z"/></svg><svg viewBox="0 0 24 24" fill="currentColor" id="behance" xmlns="http://www.w3.org/2000/svg"><path d="M19.58 12.27c-.04-.62-.25-1.09-.62-1.41-.37-.32-.83-.48-1.38-.48-.58 0-1.08.17-1.39.51-.33.34-.54.8-.62 1.38m6.35-.23c.08.41.08 1 .08 1.77h-6.5c.05.9.35 1.52.94 1.88.35.23.78.34 1.29.34.53 0 .96-.14 1.27-.41.2-.15.36-.35.5-.62h2.38c-.06.54-.35 1.07-.88 1.62-.78.88-1.9 1.3-3.34 1.3-1.19 0-2.23-.37-3.16-1.1-.88-.73-1.34-1.92-1.34-3.57 0-1.55.41-2.75 1.23-3.55.82-.83 1.88-1.24 3.19-1.24.77 0 1.47.14 2.09.42.62.28 1.14.71 1.54 1.32.37.53.6 1.14.71 1.84M9.58 14.07c0-.65-.27-1.1-.79-1.34-.29-.13-.71-.2-1.25-.23H4.87v3.34H7.5c.54 0 .96-.07 1.26-.22.55-.27.82-.79.82-1.55m-4.71-3.61H7.5c.54 0 1-.1 1.32-.31.34-.2.5-.57.5-1.09 0-.56-.22-.96-.66-1.15-.39-.13-.88-.19-1.47-.19H4.87m6.85 4.7c.32.5.48 1.11.48 1.82 0 .76-.2 1.4-.55 1.99a3.6 3.6 0 01-.88.98c-.4.29-.87.51-1.41.62-.54.11-1.12.17-1.75.17H2V5.55h6c1.53.03 2.6.45 3.23 1.33.38.53.57 1.16.57 1.9 0 .76-.19 1.37-.57 1.83-.23.26-.53.5-.95.71.63.23 1.11.6 1.44 1.1m8.34-5.1h-5.01V6.07h5.01v1.25z"/></svg><svg viewBox="0 0 24 24" fill="currentColor" id="bell" xmlns="http://www.w3.org/2000/svg"><path d="M21 19v1H3v-1l2-2v-6c0-3.1 2.03-5.83 5-6.71V4c0-1.1.9-2 2-2s2 .9 2 2v.29c2.97.88 5 3.61 5 6.71v6l2 2m-7 2c0 1.1-.9 2-2 2s-2-.9-2-2"/></svg><svg viewBox="0 0 24 24" fill="currentColor" id="book-open-page-variant" xmlns="http://www.w3.org/2000/svg"><path d="M19 2l-5 4.5v11l5-4.5V2M6.5 5C4.55 5 2.45 5.4 1 6.5v14.66c0 .25.25.5.5.5.1 0 .15-.07.25-.07 1.35-.65 3.3-1.09 4.75-1.09 1.95 0 4.05.4 5.5 1.5 1.35-.85 3.8-1.5 5.5-1.5 1.65 0 3.35.31 4.75 1.06.1.05.15.03.25.03.25 0 .5-.25.5-.5V6.5c-.6-.45-1.25-.75-2-1V19c-1.1-.35-2.3-.5-3.5-.5-1.7 0-4.15.65-5.5 1.5V6.5C10.55 5.4 8.45 5 6.5 5z"/></svg><svg viewBox="0 0 24 24" fill="currentColor" id="bookmark" xmlns="http://www.w3.org/2000/svg"><path d="M17 3H7c-1.1 0-2 .9-2 2v16l7-3 7 3V5a2 2 0 00-2-2z"/></svg><svg fill="currentColor" viewBox="0 0 24 24" id="calculator" xmlns="http://www.w3.org/2000/svg"><path d="M7 7a2 2 0 012-2h6a2 2 0 012 2v1a2 2 0 01-2 2H9a2 2 0 01-2-2V7zm2-.5a.5.5 0 00-.5.5v1a.5.5 0 00.5.5h6a.5.5 0 00.5-.5V7a.5.5 0 00-.5-.5H9zm-.75 8a1.25 1.25 0 100-2.5 1.25 1.25 0 000 2.5zm1.25 2.75a1.25 1.25 0 11-2.5 0 1.25 1.25 0 012.5 0zm6.25-2.75a1.25 1.25 0 100-2.5 1.25 1.25 0 000 2.5zM17 17.25a1.25 1.25 0 11-2.5 0 1.25 1.25 0 012.5 0zm-5-2.75a1.25 1.25 0 100-2.5 1.25 1.25 0 000 2.5zm1.25 2.75a1.25 1.25 0 11-2.5 0 1.25 1.25 0 012.5 0zM7.25 2A3.25 3.25 0 004 5.25v13.5A3.25 3.25 0 007.25 22h9.5A3.25 3.25 0 0020 18.75V5.25A3.25 3.25 0 0016.75 2h-9.5zM5.5 5.25c0-.966.784-1.75 1.75-1.75h9.5c.966 0 1.75.784 1.75 1.75v13.5a1.75 1.75 0 01-1.75 1.75h-9.5a1.75 1.75 0 01-1.75-1.75V5.25z"/></svg><svg viewBox="0 0 24 24" fill="currentColor" id="cart" xmlns="http://www.w3.org/2000/svg"><path d="M17 18c-1.11 0-2 .89-2 2 0 1.1.9 2 2 2s2-.9 2-2a2 2 0 00-2-2M1 2v2h2l3.6 7.59-1.36 2.45A2.006 2.006 0 007 17h12v-2H7.42c-.14 0-.25-.11-.25-.25 0-.05.01-.09.03-.12L8.1 13h7.45c.75 0 1.41-.42 1.75-1.03l3.58-6.47c.07-.16.12-.33.12-.5 0-.55-.45-1-1-1H5.21l-.94-2M7 18c-1.11 0-2 .89-2 2 0 1.1.9 2 2 2s2-.9 2-2a2 2 0 00-2-2z"/></svg><svg viewBox="0 0 24 24" fill="currentColor" id="cash" xmlns="http://www.w3.org/2000/svg"><path d="M3 6h18v12H3V6m9 3c1.66 0 3 1.34 3 3s-1.34 3-3 3-3-1.34-3-3 1.34-3 3-3M7 8c0 1.1-.9 2-2 2v4c1.1 0 2 .9 2 2h10c0-1.1.9-2 2-2v-4c-1.1 0-2-.9-2-2H7z"/></svg><svg viewBox="0 0 24 24" fill="currentColor" id="chart-bar" xmlns="http://www.w3.org/2000/svg"><path d="M22 21H2V3h2v16h2v-9h4v9h2V6h4v13h2v-5h4v7z"/></svg><svg fill="currentColor" viewBox="0 0 64 64" id="check" xmlns="http://www.w3.org/2000/svg"><path d="M62.916 16.356l-7.808-7.808-31.21 31.21L8.976 24.836l-7.892 7.892 22.724 22.724.006-.004.004.004z"/></svg><svg viewBox="0 0 24 24" fill="currentColor" id="check-circle" xmlns="http://www.w3.org/2000/svg"><path d="M12 2c5.52 0 10 4.48 10 10s-4.48 10-10 10S2 17.52 2 12 6.48 2 12 2m-1 14.5l7-7-1.41-1.41L11 13.67l-3.09-3.08L6.5 12l4.5 4.5z"/></svg><svg viewBox="0 0 24 24" fill="currentColor" id="check-circle-outline" xmlns="http://www.w3.org/2000/svg"><path d="M12 2c5.52 0 10 4.48 10 10s-4.48 10-10 10S2 17.52 2 12 6.48 2 12 2m0 2c-4.42 0-8 3.58-8 8s3.58 8 8 8 8-3.58 8-8-3.58-8-8-8m-1 12.5L6.5 12l1.41-1.41L11 13.67l5.59-5.58L18 9.5l-7 7z"/></svg><svg viewBox="0 0 24 24" fill="currentColor" id="check-decagram" xmlns="http://www.w3.org/2000/svg"><path d="M23 12l-2.44-2.78.34-3.68-3.61-.82-1.89-3.18L12 3 8.6 1.54 6.71 4.72l-3.61.81.34 3.68L1 12l2.44 2.78-.34 3.69 3.61.82 1.89 3.18L12 21l3.4 1.46 1.89-3.18 3.61-.82-.34-3.68L23 12m-13 5l-4-4 1.41-1.41L10 14.17l6.59-6.59L18 9l-8 8z"/></svg><svg viewBox="0 0 24 24" fill="currentColor" id="checkbox-blank-circle" xmlns="http://www.w3.org/2000/svg"><path d="M12 2A10 10 0 002 12a10 10 0 0010 10 10 10 0 0010-10A10 10 0 0012 2z"/></svg><svg viewBox="0 0 24 24" fill="currentColor" id="checkbox-blank-outline" xmlns="http://www.w3.org/2000/svg"><path d="M19 3H5c-1.11 0-2 .89-2 2v14c0 1.1.9 2 2 2h14c1.1 0 2-.9 2-2V5a2 2 0 00-2-2m0 2v14H5V5h14z"/></svg><svg viewBox="0 0 24 24" fill="currentColor" id="checkbox-marked" xmlns="http://www.w3.org/2000/svg"><path d="M10 17l-5-5 1.41-1.42L10 14.17l7.59-7.59L19 8m0-5H5c-1.11 0-2 .89-2 2v14c0 1.1.9 2 2 2h14c1.1 0 2-.9 2-2V5a2 2 0 00-2-2z"/></svg><svg viewBox="0 0 24 24" fill="currentColor" id="chevron-down" xmlns="http://www.w3.org/2000/svg"><path d="M7.41 8.58L12 13.17l4.59-4.59L18 10l-6 6-6-6 1.41-1.42z"/></svg><svg viewBox="0 0 24 24" fill="currentColor" id="chevron-left" xmlns="http://www.w3.org/2000/svg"><path d="M15.41 16.58L10.83 12l4.58-4.59L14 6l-6 6 6 6 1.41-1.42z"/></svg><svg viewBox="0 0 24 24" fill="currentColor" id="chevron-right" xmlns="http://www.w3.org/2000/svg"><path d="M8.59 16.58L13.17 12 8.59 7.41 10 6l6 6-6 6-1.41-1.42z"/></svg><svg viewBox="0 0 24 24" fill="currentColor" id="chevron-up" xmlns="http://www.w3.org/2000/svg"><path d="M7.41 15.41L12 10.83l4.59 4.58L18 14l-6-6-6 6 1.41 1.41z"/></svg><svg viewBox="0 0 24 24" fill="currentColor" id="circle" xmlns="http://www.w3.org/2000/svg"><path d="M12 2A10 10 0 002 12a10 10 0 0010 10 10 10 0 0010-10A10 10 0 0012 2z"/></svg><svg viewBox="0 0 24 24" fill="currentColor" id="clock" xmlns="http://www.w3.org/2000/svg"><path d="M12 2C6.48 2 2 6.48 2 12s4.48 10 10 10 10-4.48 10-10S17.52 2 12 2m4.2 14.2L11 13V7h1.5v5.2l4.5 2.7-.8 1.3z"/></svg><svg viewBox="0 0 24 24" fill="currentColor" id="clock-outline" xmlns="http://www.w3.org/2000/svg"><path d="M12 20a8 8 0 008-8 8 8 0 00-8-8 8 8 0 00-8 8 8 8 0 008 8m0-18a10 10 0 0110 10 10 10 0 01-10 10C6.47 22 2 17.5 2 12A10 10 0 0112 2m.5 5v5.25l4.5 2.67-.75 1.23L11 13V7h1.5z"/></svg><svg viewBox="0 0 24 24" fill="currentColor" id="close" xmlns="http://www.w3.org/2000/svg"><path d="M19 6.41L17.59 5 12 10.59 6.41 5 5 6.41 10.59 12 5 17.59 6.41 19 12 13.41 17.59 19 19 17.59 13.41 12 19 6.41z"/></svg><svg viewBox="0 0 24 24" fill="currentColor" id="coffee" xmlns="http://www.w3.org/2000/svg"><path d="M2 21h18v-2H2M20 8h-2V5h2m0-2H4v10c0 2.21 1.79 4 4 4h6c2.21 0 4-1.79 4-4v-3h2c1.1 0 2-.9 2-2V5a2 2 0 00-2-2z"/></svg><svg viewBox="0 0 24 24" fill="currentColor" id="coin" xmlns="http://www.w3.org/2000/svg"><path d="M12 2c5.52 0 10 4.48 10 10s-4.48 10-10 10S2 17.52 2 12 6.48 2 12 2m0 2c-4.42 0-8 3.58-8 8s3.58 8 8 8 8-3.58 8-8-3.58-8-8-8m-1 13v-1H9v-2h4v-1h-3c-.55 0-1-.45-1-1V9c0-.55.45-1 1-1h1V7h2v1h2v2h-4v1h3c.55 0 1 .45 1 1v3c0 .55-.45 1-1 1h-1v1h-2z"/></svg><svg viewBox="0 0 24 24" fill="currentColor" id="color" xmlns="http://www.w3.org/2000/svg"><path d="M23.92 11.237A12.337 12.337 0 0014.935.868 9.789 9.789 0 009.159.84a12.483 12.483 0 00-8.8 8.906 11.918 11.918 0 003.159 11.385 2.487 2.487 0 003.081.358 1.5 1.5 0 00.256-2.334l-.809-.81a1 1 0 010-1.414 1.1 1.1 0 011.6-.189c1.41 1.409 5.62 5.656 5.622 5.657a3.985 3.985 0 002.815 1.183 3.751 3.751 0 001.928-.53 12.018 12.018 0 005.909-11.815zm-9.443 7.626a2.506 2.506 0 010-3.537 2.562 2.562 0 013.535 0 2.5 2.5 0 11-3.535 3.537zM14.245 7.2a2 2 0 012-2 2 2 0 11-2 2zm3.7 6.01a1.5 1.5 0 112.121 0 1.5 1.5 0 01-2.124-.005zm-6.296-8.49a2 2 0 11-2.827 0 2.048 2.048 0 012.827 0z"/></svg><svg viewBox="0 0 24 24" fill="currentColor" id="comment" xmlns="http://www.w3.org/2000/svg"><path d="M9 22c-.55 0-1-.45-1-1v-3H4c-1.1 0-2-.9-2-2V4a2 2 0 012-2h16c1.1 0 2 .9 2 2v12c0 1.1-.9 2-2 2h-6.1l-3.7 3.71c-.2.19-.45.29-.7.29H9z"/></svg><svg viewBox="0 0 24 24" fill="currentColor" id="credit-card" xmlns="http://www.w3.org/2000/svg"><path d="M20 8H4V6h16m0 12H4v-6h16m0-8H4c-1.11 0-2 .89-2 2v12c0 1.1.9 2 2 2h16c1.1 0 2-.9 2-2V6a2 2 0 00-2-2z"/></svg><svg viewBox="0 0 24 24" fill="currentColor" id="credit-card-plus" xmlns="http://www.w3.org/2000/svg"><path d="M21 18h3v2h-3v3h-2v-3h-3v-2h3v-3h2v3M19 8V6H3v2h16m0 4H3v6h11v2H3a2 2 0 01-2-2V6c0-1.11.89-2 2-2h16c1.1 0 2 .9 2 2v7h-2v-1z"/></svg><svg viewBox="0 0 24 24" fill="currentColor" id="credits" xmlns="http://www.w3.org/2000/svg"><path d="M16.7 4.028a17.374 17.374 0 005.333-.667.25.25 0 00.167-.235v-.1a.5.5 0 00-.147-.353c-.117-.117-1.264-1.147-5.353-1.147s-5.237 1.03-5.354 1.147a.5.5 0 00-.146.353v.114a.25.25 0 00.17.237 18.078 18.078 0 005.33.651zM16.7 9.028a17.374 17.374 0 005.333-.667.25.25 0 00.167-.235V4.7a.252.252 0 00-.1-.2.248.248 0 00-.219-.04 22.6 22.6 0 01-5.181.569 22.6 22.6 0 01-5.182-.569.249.249 0 00-.219.04.254.254 0 00-.1.2v3.442a.25.25 0 00.17.237 18.078 18.078 0 005.331.649zM16.7 10.028a22.6 22.6 0 01-5.182-.569.249.249 0 00-.219.04.254.254 0 00-.1.2v2.829c0 1.354 3.846 1.5 5.5 1.5s5.5-.146 5.5-1.5V9.7a.252.252 0 00-.1-.2.248.248 0 00-.219-.04 22.6 22.6 0 01-5.18.568zM20.705 16.527h-.011L17.173 17.7a.255.255 0 00-.152.143 2 2 0 01-1.821 1.185h-4a.5.5 0 010-1h4a1 1 0 000-2h-3.5a7.124 7.124 0 00-4-1.5H5.644a4 4 0 00-1.789.423L.838 16.459a.25.25 0 00-.138.224v5.394a.249.249 0 00.382.212l3.218-2.01a1.018 1.018 0 01.857-.1c9.964 3.358 6.629 3.373 17.861-2.309A.521.521 0 0023.1 17a2.477 2.477 0 00-2.395-.473z"/></svg><svg fill="currentColor" viewBox="0 0 40 40" id="crown" xmlns="http://www.w3.org/2000/svg"><path d="M30.974 18.401a4.004 4.004 0 01-4.43 3.574c-1.322-.146-2.472-1.026-3.087-2.206a3.93 3.93 0 01-.433-1.36c-.092-.78.216-1.553.735-2.143a4.934 4.934 0 001.14-4.274c-.38-1.92-1.915-3.485-3.831-3.881A5.006 5.006 0 0015 13c0 1.255.473 2.391 1.24 3.265.52.59.828 1.363.736 2.144a3.929 3.929 0 01-.433 1.36c-.614 1.18-1.765 2.06-3.087 2.206a4.004 4.004 0 01-4.43-3.574 1.816 1.816 0 01.292-1.19 3.973 3.973 0 00.5-3.414 3.963 3.963 0 00-2.906-2.696A4.005 4.005 0 002 15c0 1.509.84 2.81 2.076 3.487.473.26.83.686.979 1.205L8 30c2 5 22 5 24 0l2.945-10.308a2.01 2.01 0 01.98-1.205A3.97 3.97 0 0038 15a4.006 4.006 0 00-4.913-3.9 3.963 3.963 0 00-2.906 2.698 3.972 3.972 0 00.501 3.413c.233.347.334.775.292 1.19z"/></svg><svg viewBox="0 0 24 24" fill="currentColor" id="delete" xmlns="http://www.w3.org/2000/svg"><path d="M19 4h-3.5l-1-1h-5l-1 1H5v2h14M6 19c0 1.1.9 2 2 2h8c1.1 0 2-.9 2-2V7H6v12z"/></svg><svg viewBox="0 0 24 24" fill="currentColor" id="dots-vertical" xmlns="http://www.w3.org/2000/svg"><path d="M12 16a2 2 0 012 2 2 2 0 01-2 2 2 2 0 01-2-2 2 2 0 012-2m0-6a2 2 0 012 2 2 2 0 01-2 2 2 2 0 01-2-2 2 2 0 012-2m0-6a2 2 0 012 2 2 2 0 01-2 2 2 2 0 01-2-2 2 2 0 012-2z"/></svg><svg fill="currentColor" viewBox="0 0 24 24" fill-rule="evenodd" clip-rule="evenodd" stroke-linejoin="round" stroke-miterlimit="2" id="download" xmlns="http://www.w3.org/2000/svg"><path d="M.751 19.5h22.5a.75.75 0 000-1.5H.751a.75.75 0 000 1.5zM12.001 12.439L4.281 4.72a.749.749 0 10-1.06 1.06l7.72 7.72a1.498 1.498 0 002.121 0l7.719-7.72a.749.749 0 10-1.06-1.06l-7.72 7.719z"/></svg><svg viewBox="0 0 24 24" fill="currentColor" id="dribbble" xmlns="http://www.w3.org/2000/svg"><path d="M16.42 18.42A57.5 57.5 0 0015 13.17c.5-.07 1-.11 1.58-.11h.02c.93 0 1.95.12 3.06.37a7.788 7.788 0 01-3.24 4.99M12 19.8c-1.74 0-3.34-.57-4.64-1.54.28-.45.87-1.32 1.82-2.22.96-.93 2.32-1.89 4.05-2.46.59 1.67 1.13 3.57 1.54 5.71-.86.33-1.77.51-2.77.51M4.2 12v-.11c.22.01.51.01.85.01h.01c1.56-.01 4.3-.14 7.08-1.01.15.33.3.67.45 1.03-1.86.62-3.32 1.61-4.4 2.58-1.03.96-1.74 1.89-2.15 2.5a7.704 7.704 0 01-1.84-5m4.35-7c.55.65 1.63 2.06 2.79 4.25-2.34.71-4.73.87-6.16.87h-.13c-.24 0-.45 0-.62-.01C5 7.87 6.5 6 8.55 5M12 4.2c1.84 0 3.53.64 4.86 1.71C15.84 7.14 14.5 8 13.03 8.65 12 6.67 11 5.25 10.34 4.38c.54-.11 1.09-.18 1.66-.18m6.13 2.98a7.823 7.823 0 011.66 4.45 15.32 15.32 0 00-3.19-.35h-.01c-.8 0-1.55.07-2.26.19-.17-.42-.33-.82-.52-1.21 1.58-.69 3.09-1.68 4.32-3.08M12 2C6.48 2 2 6.48 2 12s4.48 10 10 10 10-4.48 10-10S17.52 2 12 2z"/></svg><svg viewBox="0 0 24 24" fill="currentColor" id="dt-3d-illustrations" xmlns="http://www.w3.org/2000/svg"><path d="M22.523 3.345L12.785.705a3.029 3.029 0 00-1.57 0l-9.738 2.64A2.028 2.028 0 000 5.276v12.542a2 2 0 001.343 1.889l10.141 3.528a2.957 2.957 0 001.01.164 2.838 2.838 0 001.043-.194l9.175-3.5A2.083 2.083 0 0024 17.84V5.276a2.022 2.022 0 00-1.477-1.931zm-10.785-.709a1.012 1.012 0 01.524 0l6.157 1.669a.25.25 0 010 .482l-5.864 1.686a.25.25 0 01-.133 0L5.786 4.732a.25.25 0 010-.483zm-9.57 15.24A.25.25 0 012 17.64V6.131a.251.251 0 01.1-.2.254.254 0 01.216-.044l9 2.362a.25.25 0 01.187.242v12.28a.247.247 0 01-.105.2.252.252 0 01-.227.033z"/></svg><svg viewBox="0 0 24 24" fill="currentColor" id="dt-icons" xmlns="http://www.w3.org/2000/svg"><path d="M9.9 3.716l-1.954-.291A1.256 1.256 0 017 2.721L6.132.9a.7.7 0 00-1.264 0L4 2.721a1.253 1.253 0 01-.942.7L1.1 3.716a.709.709 0 00-.569.493.738.738 0 00.178.743l1.412 1.411a1.307 1.307 0 01.358 1.146l-.37 2.139a.736.736 0 00.289.721.688.688 0 00.757.034l1.708-1.015a1.217 1.217 0 01.637-.173 1.217 1.217 0 01.635.173l1.71 1.012a.688.688 0 00.757-.034.734.734 0 00.289-.721l-.37-2.139a1.31 1.31 0 01.358-1.146l1.408-1.411a.741.741 0 00.179-.743.712.712 0 00-.566-.49zM21.544 13.557a2.505 2.505 0 00-2.814 1.394.248.248 0 01-.46 0 2.5 2.5 0 00-2.814-1.394 2.537 2.537 0 00-1.948 2.7c.178 3.023 3.442 6.146 4.594 7.1a.623.623 0 00.8 0c1.152-.955 4.415-4.078 4.593-7.1a2.538 2.538 0 00-1.951-2.7z"/><circle cx="18.5" cy="5.5" r="5"/><path d="M10 16.75a2.749 2.749 0 00-4.583-2.05.251.251 0 01-.334 0A2.749 2.749 0 001.2 18.583a.251.251 0 010 .334A2.749 2.749 0 005.083 22.8a.251.251 0 01.334 0A2.749 2.749 0 009.3 18.917a.251.251 0 010-.334 2.736 2.736 0 00.7-1.833z"/></svg><svg viewBox="0 0 24 24" fill="currentColor" id="dt-illustrations" xmlns="http://www.w3.org/2000/svg"><path d="M23 19h-9.885a.5.5 0 01-.479-.356l-.909-3.036a1 1 0 00-1.916.575l1.124 3.748a1.482 1.482 0 00.592.808.5.5 0 01.167.637l-.589 1.177a1 1 0 001.79.894l1.085-2.171a.5.5 0 01.447-.276h5.146a.5.5 0 01.447.276l1.085 2.171a1 1 0 001.79-.894l-.415-.829a.5.5 0 01.447-.724H23a1 1 0 000-2zM7.521 15.5H3.7a.5.5 0 00-.481.361 25.818 25.818 0 00-.594 2.549.5.5 0 00.493.59h4.17a.5.5 0 00.5-.483 20.6 20.6 0 01.227-2.441.5.5 0 00-.494-.576zM7.807 20.472a.5.5 0 00-.5-.472H2.813a.5.5 0 00-.5.433c-.039.294-.077.59-.108.9L2 23.45a.5.5 0 00.5.55h5a.5.5 0 00.5-.531L7.809 20.5zM8.4 10.464l-3.475 1.584a.5.5 0 00-.227.207 15.054 15.054 0 00-.766 1.553.5.5 0 00.46.7h3.529a.5.5 0 00.485-.377 20.578 20.578 0 011.035-3.059l-.473-.493a.5.5 0 00-.568-.115z"/><path d="M9.2 9.369l5.762 6.013a1.007 1.007 0 00.723.307.929.929 0 00.222-.026 1 1 0 00.728-.663 5.7 5.7 0 00-1.7-5.428A6.428 6.428 0 0010.673 7.5a.5.5 0 01-.491-.5.512.512 0 01.509-.491 6 6 0 011.785.315.5.5 0 00.4-.036l4.993-2.748a1 1 0 00.063-1.716 5.7 5.7 0 00-5.684.24 7.08 7.08 0 00-1.931 1.542.5.5 0 01-.829-.116A7.1 7.1 0 007.734 1.7a5.694 5.694 0 00-5.5-1.46 1 1 0 00-.307 1.69l3.964 3.475a.5.5 0 00.35.123 6.443 6.443 0 011.686.131.5.5 0 01-.221.975 6.914 6.914 0 00-4.113.526A5.7 5.7 0 000 11.572a1 1 0 001 1.067.992.992 0 00.413-.09L8.631 9.26a.5.5 0 01.569.109z"/></svg><svg viewBox="0 0 24 24" fill="currentColor" id="email" xmlns="http://www.w3.org/2000/svg"><path d="M20 8l-8 5-8-5V6l8 5 8-5m0-2H4c-1.11 0-2 .89-2 2v12c0 1.1.9 2 2 2h16c1.1 0 2-.9 2-2V6a2 2 0 00-2-2z"/></svg><svg viewBox="0 0 24 24" fill="currentColor" id="email-outline" xmlns="http://www.w3.org/2000/svg"><path d="M4 4h16c1.1 0 2 .9 2 2v12c0 1.1-.9 2-2 2H4a2 2 0 01-2-2V6c0-1.11.89-2 2-2m8 7l8-5H4l8 5m-8 7h16V8.37l-8 4.99-8-4.99V18z"/></svg><svg viewBox="0 0 24 24" fill="currentColor" id="emoticon-excited" xmlns="http://www.w3.org/2000/svg"><path d="M12 2C6.47 2 2 6.47 2 12s4.47 10 10 10c5.52 0 10-4.48 10-10 0-5.53-4.5-10-10-10m0 18c-4.42 0-8-3.58-8-8s3.58-8 8-8 8 3.58 8 8-3.58 8-8 8m1-10.06L14.06 11l1.06-1.06L16.18 11l1.06-1.06-2.12-2.12L13 9.94m-4.12 0L9.94 11 11 9.94 8.88 7.82 6.76 9.94 7.82 11l1.06-1.06M12 17.5c2.33 0 4.31-1.46 5.11-3.5H6.89c.8 2.04 2.78 3.5 5.11 3.5z"/></svg><svg fill="currentColor" viewBox="0 0 48 48" id="exit" xmlns="http://www.w3.org/2000/svg"><path d="M0 0h48v48H0z" fill="none"/><path d="M20.17 31.17L23 34l10-10-10-10-2.83 2.83L25.34 22H6v4h19.34l-5.17 5.17zM38 6H10c-2.21 0-4 1.79-4 4v8h4v-8h28v28H10v-8H6v8c0 2.21 1.79 4 4 4h28c2.21 0 4-1.79 4-4V10c0-2.21-1.79-4-4-4z"/></svg><svg viewBox="0 0 24 24" fill="currentColor" id="expand-left" xmlns="http://www.w3.org/2000/svg"><path d="M23.75 11.521a1.25 1.25 0 00-1.25-1.25H11.318a.25.25 0 01-.25-.25V7.7a.5.5 0 00-.853-.353L6.4 11.168a.5.5 0 000 .707l3.819 3.818a.5.5 0 00.353.147.513.513 0 00.192-.038.5.5 0 00.308-.462v-2.319a.25.25 0 01.25-.25H22.5a1.25 1.25 0 001.25-1.25zM1.5 23.749A1.25 1.25 0 002.75 22.5v-21a1.25 1.25 0 00-2.5 0v21a1.25 1.25 0 001.25 1.249z"/></svg><svg viewBox="0 0 24 24" fill="currentColor" id="expand-right" xmlns="http://www.w3.org/2000/svg"><path d="M17.6 11.168L13.785 7.35a.5.5 0 00-.853.353v2.318a.25.25 0 01-.25.25H1.5a1.25 1.25 0 000 2.5h11.182a.25.25 0 01.25.25v2.319a.5.5 0 00.308.462.513.513 0 00.192.038.5.5 0 00.353-.147l3.815-3.818a.5.5 0 000-.707zM22.5.249A1.25 1.25 0 0021.25 1.5v21a1.25 1.25 0 002.5 0v-21A1.25 1.25 0 0022.5.249z"/></svg><svg viewBox="0 0 24 24" fill="currentColor" id="expand-vertical" xmlns="http://www.w3.org/2000/svg"><path d="M1.5 16.112h8.523a.25.25 0 01.25.25v2.024a.25.25 0 01-.25.25H8.659a1 1 0 00-.707 1.707l2.864 2.863a1 1 0 001.414 0l2.863-2.863a1 1 0 00-.707-1.707h-1.363a.25.25 0 01-.25-.25v-2.024a.25.25 0 01.25-.25H22.5a1.25 1.25 0 000-2.5h-21a1.25 1.25 0 100 2.5zM.25 10.09a1.25 1.25 0 001.25 1.25h21a1.25 1.25 0 000-2.5h-9.477a.25.25 0 01-.25-.25V5.612a.25.25 0 01.25-.25h1.363a1 1 0 00.707-1.707L12.23.792a1 1 0 00-1.414 0L7.952 3.655a1 1 0 00.707 1.707h1.364a.25.25 0 01.25.25V8.59a.25.25 0 01-.25.25H1.5a1.25 1.25 0 00-1.25 1.25z"/></svg><svg fill="currentColor" viewBox="0 0 24 24" id="explicit" xmlns="http://www.w3.org/2000/svg"><path d="M0 0h24v24H0z" fill="none"/><path d="M19 3H5c-1.1 0-2 .9-2 2v14c0 1.1.9 2 2 2h14c1.1 0 2-.9 2-2V5c0-1.1-.9-2-2-2zm-4 6h-4v2h4v2h-4v2h4v2H9V7h6v2z"/></svg><svg fill="currentColor" viewBox="0 0 18 18" id="external" xmlns="http://www.w3.org/2000/svg"><path d="M8.25 4.242a1 1 0 00-1-1h-3.5a3 3 0 00-3 3v8a3 3 0 003 3h8a3 3 0 003-3v-2.5a1 1 0 00-2 0v2.5a1 1 0 01-1 1h-8a1 1 0 01-1-1v-8a1 1 0 011-1h3.5a1 1 0 001-1z"/><path d="M6.75 12.742a1.5 1.5 0 001.06-.438l6.468-6.458a.248.248 0 01.353 0L16.4 7.61a.5.5 0 00.854-.353v-6a.5.5 0 00-.5-.5h-6a.5.5 0 00-.354.853l1.76 1.76a.255.255 0 01.054.273.25.25 0 01-.054.08L5.69 10.18a1.5 1.5 0 001.06 2.56z"/></svg><svg viewBox="0 0 24 24" fill="currentColor" id="eye" xmlns="http://www.w3.org/2000/svg"><path d="M12 9c-1.66 0-3 1.34-3 3s1.34 3 3 3 3-1.34 3-3-1.34-3-3-3m0 8c-2.76 0-5-2.24-5-5s2.24-5 5-5 5 2.24 5 5-2.24 5-5 5m0-12.5C7 4.5 2.73 7.61 1 12c1.73 4.39 6 7.5 11 7.5s9.27-3.11 11-7.5c-1.73-4.39-6-7.5-11-7.5z"/></svg><svg fill="currentColor" viewBox="0 0 24 24" id="f_api" xmlns="http://www.w3.org/2000/svg"><path d="M16 12a5 5 0 10-4.337-2.51l-2.714 1.808a4 4 0 10.23 5.13l3.887 1.943a3 3 0 10.671-1.341l-3.886-1.943a4.004 4.004 0 00-.113-2.513l2.863-1.907A4.982 4.982 0 0016 12zm0-1.5a3.5 3.5 0 110-7 3.5 3.5 0 010 7zm-10 6a2.5 2.5 0 110-5 2.5 2.5 0 010 5zM17.5 19a1.5 1.5 0 11-3 0 1.5 1.5 0 013 0z"/></svg><svg fill="currentColor" viewBox="0 0 24 24" id="f_book" xmlns="http://www.w3.org/2000/svg"><path d="M7 6a1 1 0 011-1h8a1 1 0 011 1v2a1 1 0 01-1 1H8a1 1 0 01-1-1V6zm1.5 1.5h7v-1h-7v1z"/><path d="M4 4.5A2.5 2.5 0 016.5 2H18a2.5 2.5 0 012.5 2.5v14.25a.75.75 0 01-.75.75H5.5a1 1 0 001 1h13.25a.75.75 0 010 1.5H6.5A2.5 2.5 0 014 19.5v-15zM5.5 18H19V4.5a1 1 0 00-1-1H6.5a1 1 0 00-1 1V18z"/></svg><svg fill="currentColor" viewBox="0 0 24 24" id="f_chat" xmlns="http://www.w3.org/2000/svg"><path d="M8.144 6.307c.434-.232.901-.306 1.356-.306.526 0 1.138.173 1.632.577.517.424.868 1.074.868 1.922 0 .975-.689 1.504-1.077 1.802l-.085.066c-.424.333-.588.511-.588.882a.75.75 0 01-1.5 0c0-1.134.711-1.708 1.162-2.062.513-.403.588-.493.588-.688 0-.397-.149-.622-.32-.761A1.115 1.115 0 009.5 7.5c-.295 0-.498.049-.65.13-.143.076-.294.21-.44.48a.75.75 0 11-1.32-.715c.264-.486.612-.853 1.054-1.089zM9.5 15a1 1 0 100-2 1 1 0 000 2z"/><path d="M9.5 3a7.5 7.5 0 00-6.797 10.673l-.725 2.842a1.25 1.25 0 001.504 1.524c.75-.18 1.903-.457 2.93-.702A7.5 7.5 0 109.5 3zm-6 7.5a6 6 0 113.33 5.375l-.243-.121-.265.063-2.788.667c.2-.78.462-1.812.69-2.708l.07-.276-.13-.253A5.971 5.971 0 013.5 10.5z"/><path d="M14.5 21c-1.97 0-3.761-.759-5.1-2h.1c.718 0 1.415-.089 2.081-.257.864.482 1.86.757 2.92.757.96 0 1.866-.225 2.669-.625l.243-.121.265.063c.921.22 1.965.445 2.74.61-.176-.751-.415-1.756-.642-2.651l-.07-.276.13-.253A5.971 5.971 0 0020.5 13.5a5.995 5.995 0 00-2.747-5.042 8.443 8.443 0 00-.8-2.047 7.503 7.503 0 014.344 10.263c.253 1.008.51 2.1.672 2.803a1.244 1.244 0 01-1.468 1.5c-.727-.152-1.87-.396-2.913-.64A7.476 7.476 0 0114.5 21z"/></svg><svg fill="currentColor" viewBox="0 0 24 24" id="f_download_clock" xmlns="http://www.w3.org/2000/svg"><path d="M22 12c0-5.522-4.477-10-10-10S2 6.478 2 12c0 .263.01.523.03.78a6.515 6.515 0 011.644-1.135C3.861 7.214 7.524 3.667 12 3.667c4.595 0 8.333 3.738 8.333 8.333 0 4.476-3.547 8.139-7.978 8.326a6.516 6.516 0 01-1.136 1.644c.258.02.518.03.781.03 5.523 0 10-4.478 10-10zm-16 .023a5.5 5.5 0 101 0v5.77l1.646-1.647a.5.5 0 01.708.708l-2.5 2.5a.5.5 0 01-.708 0l-2.5-2.5a.5.5 0 01.708-.708L6 17.793v-5.77zM4 20h5a.5.5 0 010 1H4a.5.5 0 010-1zm8.493-13.352A.75.75 0 0011 6.75v6l.007.102a.75.75 0 00.743.648h4l.102-.007A.75.75 0 0015.75 12H12.5V6.75l-.007-.102z"/></svg><svg fill="currentColor" viewBox="0 0 24 24" id="f_globe" xmlns="http://www.w3.org/2000/svg"><path d="M12 1.999c5.524 0 10.002 4.478 10.002 10.002 0 5.523-4.478 10.001-10.002 10.001-5.524 0-10.002-4.478-10.002-10.001C1.998 6.477 6.476 1.999 12 1.999zM14.939 16.5H9.06c.652 2.414 1.786 4.002 2.939 4.002s2.287-1.588 2.939-4.002zm-7.43 0H4.785a8.532 8.532 0 004.094 3.411c-.522-.82-.953-1.846-1.27-3.015l-.102-.395zm11.705 0h-2.722c-.324 1.335-.792 2.5-1.373 3.411a8.528 8.528 0 003.91-3.127l.185-.283zM7.094 10H3.735l-.005.017a8.525 8.525 0 00-.233 1.984c0 1.056.193 2.067.545 3h3.173a20.847 20.847 0 01-.123-5zm8.303 0H8.603a18.966 18.966 0 00.135 5h6.524a18.974 18.974 0 00.135-5zm4.868 0h-3.358c.062.647.095 1.317.095 2a20.3 20.3 0 01-.218 3h3.173a8.482 8.482 0 00.544-3c0-.689-.082-1.36-.236-2zM8.88 4.09l-.023.008A8.531 8.531 0 004.25 8.5h3.048c.314-1.752.86-3.278 1.583-4.41zM12 3.499l-.116.005C10.62 3.62 9.396 5.622 8.83 8.5h6.342c-.566-2.87-1.783-4.869-3.045-4.995L12 3.5zm3.12.59l.107.175c.669 1.112 1.177 2.572 1.475 4.237h3.048a8.533 8.533 0 00-4.339-4.29l-.291-.121z"/></svg><svg fill="currentColor" viewBox="0 0 24 24" id="f_knowledgebase" xmlns="http://www.w3.org/2000/svg"><path d="M11 8.018a.75.75 0 01-.75.732c-.75 0-.75-.751-.75-.751V7.99a1.403 1.403 0 01.008-.134 2.222 2.222 0 01.42-1.067c.454-.613 1.27-1.062 2.585-1.039.95.017 1.793.415 2.321 1.07.537.667.718 1.57.362 2.459-.362.905-1.181 1.265-1.652 1.471l-.05.023c-.28.123-.413.187-.493.251l-.001.001v.724a.75.75 0 01-1.5.001V11c0-.523.252-.897.563-1.147.25-.2.565-.338.786-.436l.038-.017c.542-.239.8-.387.917-.679a.92.92 0 00-.138-.96c-.222-.275-.629-.502-1.179-.511-.935-.016-1.245.285-1.353.432a.722.722 0 00-.134.33v.006z"/><path d="M12.25 15.5a1 1 0 100-2 1 1 0 000 2z" fill="#212121"/><path d="M4 4.5A2.5 2.5 0 016.5 2H18a2.5 2.5 0 012.5 2.5v14.25a.75.75 0 01-.75.75H5.5a1 1 0 001 1h13.25a.75.75 0 010 1.5H6.5A2.5 2.5 0 014 19.5v-15zm1.5 0V18H19V4.5a1 1 0 00-1-1H6.5a1 1 0 00-1 1z"/></svg><svg fill="currentColor" viewBox="0 0 24 24" id="f_mail" xmlns="http://www.w3.org/2000/svg"><path d="M5.25 4h13.5a3.25 3.25 0 013.245 3.066L22 7.25v9.5a3.25 3.25 0 01-3.066 3.245L18.75 20H5.25a3.25 3.25 0 01-3.245-3.066L2 16.75v-9.5a3.25 3.25 0 013.066-3.245L5.25 4h13.5-13.5zM20.5 9.373l-8.15 4.29a.75.75 0 01-.603.043l-.096-.042L3.5 9.374v7.376a1.75 1.75 0 001.606 1.744l.144.006h13.5a1.75 1.75 0 001.744-1.607l.006-.143V9.373zM18.75 5.5H5.25a1.75 1.75 0 00-1.744 1.606L3.5 7.25v.429l8.5 4.473 8.5-4.474V7.25a1.75 1.75 0 00-1.607-1.744L18.75 5.5z"/></svg><svg fill="currentColor" viewBox="0 0 24 24" id="f_ribbon" xmlns="http://www.w3.org/2000/svg"><path d="M12.229 5.642l.912 1.853 2.044.295c.21.03.293.288.142.435l-1.479 1.44.35 2.036a.255.255 0 01-.37.269L12 11.008l-1.827.962a.255.255 0 01-.37-.269l.35-2.035-1.48-1.44a.255.255 0 01.142-.436l2.044-.295.912-1.853a.255.255 0 01.458 0z"/><path d="M19 9a7 7 0 10-12 4.898v7.352l.008.105a.75.75 0 001.175.508l3.816-2.687 3.819 2.688.089.054a.75.75 0 001.092-.668l.002-7.352A6.977 6.977 0 0019 9zm-3.5 6.064v4.741l-3.07-2.16-.1-.06a.75.75 0 00-.763.06l-3.066 2.16v-4.741A6.969 6.969 0 0012 16c1.275 0 2.47-.34 3.5-.936zM6.5 9a5.5 5.5 0 1111 0 5.5 5.5 0 01-11 0z"/></svg><svg fill="currentColor" viewBox="0 0 24 24" id="f_rocket" xmlns="http://www.w3.org/2000/svg"><path d="M13.057 7.431a2.5 2.5 0 113.536 3.536 2.5 2.5 0 01-3.536-3.536zm2.475 1.06a1 1 0 10-1.414 1.415 1 1 0 001.414-1.414z"/><path d="M21.509 4.323a2.75 2.75 0 00-1.811-1.81l-.663-.206a6.75 6.75 0 00-6.773 1.674l-.996.995a3.498 3.498 0 00-4.57.327L5.455 6.546a.75.75 0 000 1.06l1.591 1.591-.18.18a1.75 1.75 0 000 2.475l.496.495-1.396.796a.75.75 0 00-.158 1.182l3.889 3.89a.75.75 0 001.181-.159l.798-1.395.497.497a1.75 1.75 0 002.475 0l.177-.176 1.59 1.59a.75.75 0 001.06 0l1.242-1.243a3.497 3.497 0 00.328-4.568l.998-.998a6.75 6.75 0 001.673-6.776l-.206-.664zm-2.256-.378c.393.122.701.43.823.823l.207.664a5.25 5.25 0 01-1.302 5.27l-5.395 5.396a.25.25 0 01-.353 0L7.926 10.79a.25.25 0 010-.353l5.396-5.397a5.25 5.25 0 015.269-1.301l.662.205zm-1.289 9.896c.453.766.35 1.769-.308 2.427l-.712.712-1.06-1.059 2.08-2.08zM7.758 6.364a1.998 1.998 0 012.428-.308l-2.08 2.08-1.06-1.06.712-.712zm2.818 9.198l-.514.897-2.5-2.5.898-.512 2.116 2.115zM6.69 18.395a.75.75 0 00-1.06-1.061l-2.476 2.475a.75.75 0 001.061 1.06l2.475-2.474zM4.745 15.39a.75.75 0 010 1.06l-1.06 1.06a.75.75 0 11-1.061-1.06l1.06-1.06a.75.75 0 011.061 0zM8.632 20.341a.75.75 0 10-1.06-1.06l-1.059 1.058a.75.75 0 001.06 1.06l1.06-1.058z"/></svg><svg fill="currentColor" viewBox="0 0 24 24" id="f_school" xmlns="http://www.w3.org/2000/svg"><path d="M13 6.25a1 1 0 11-2 0 1 1 0 012 0z"/><path d="M13.032 2.325a1.75 1.75 0 00-2.064 0L3.547 7.74c-.978.713-.473 2.26.736 2.26H4.5v5.8A2.75 2.75 0 003 18.25v1.5c0 .413.336.75.75.75h16.5a.75.75 0 00.75-.75v-1.5a2.75 2.75 0 00-1.5-2.45V10h.217c1.21 0 1.713-1.547.736-2.26l-7.421-5.416zm-1.18 1.211a.25.25 0 01.295 0L18.95 8.5H5.05l6.803-4.964zM18 10v5.5h-2V10h2zm-3.5 0v5.5h-1.75V10h1.75zm-3.25 0v5.5H9.5V10h1.75zm-5.5 7h12.5c.69 0 1.25.56 1.25 1.25V19h-15v-.75c0-.69.56-1.25 1.25-1.25zM6 15.5V10h2v5.5H6z"/></svg><svg viewBox="0 0 24 24" fill="currentColor" id="facebook" xmlns="http://www.w3.org/2000/svg"><path d="M17 2v4h-2c-.69 0-1 .81-1 1.5V10h3v4h-3v8h-4v-8H7v-4h3V6c0-2.21 1.79-4 4-4h3z"/></svg><svg fill="currentColor" viewBox="0 0 24 24" id="feedback" xmlns="http://www.w3.org/2000/svg"><path d="M3 5a3 3 0 00-3 3v6a3 3 0 003 3h2.846l2.3 5.743a2 2 0 003.714-1.486L10.154 17h3.495L20 22V0l-6.351 5zm19 2.566v6.868a3.948 3.948 0 000-6.868z" data-name="megaphone"/></svg><svg viewBox="0 0 24 24" fill="currentColor" id="file-image" xmlns="http://www.w3.org/2000/svg"><path d="M13 9h5.5L13 3.5V9M6 2h8l6 6v12c0 1.1-.9 2-2 2H6a2 2 0 01-2-2V4c0-1.11.89-2 2-2m0 18h12v-8l-4 4-2-2-6 6M8 9c-1.1 0-2 .9-2 2s.9 2 2 2 2-.9 2-2-.9-2-2-2z"/></svg><svg viewBox="0 0 24 24" fill="currentColor" id="file-outline" xmlns="http://www.w3.org/2000/svg"><path d="M14 2H6c-1.1 0-2 .9-2 2v16c0 1.1.9 2 2 2h12c1.1 0 2-.9 2-2V8l-6-6m4 18H6V4h7v5h5v11z"/></svg><svg viewBox="0 0 24 24" fill="currentColor" id="flag" xmlns="http://www.w3.org/2000/svg"><path d="M14.4 6L14 4H5v17h2v-7h5.6l.4 2h7V6h-5.6z"/></svg><svg viewBox="0 0 24 24" fill="currentColor" id="folder" xmlns="http://www.w3.org/2000/svg"><path d="M10 4H4c-1.11 0-2 .89-2 2v12a2 2 0 002 2h16a2 2 0 002-2V8a2 2 0 00-2-2h-8l-2-2z"/></svg><svg viewBox="0 0 24 24" fill="currentColor" id="folder-open" xmlns="http://www.w3.org/2000/svg"><path d="M19 20H4a2 2 0 01-2-2V6c0-1.11.89-2 2-2h6l2 2h7c1.1 0 2 .9 2 2H4v10l2.14-8h17.07l-2.28 8.5c-.23.87-1.01 1.5-1.93 1.5z"/></svg><svg viewBox="0 0 24 24" fill="currentColor" id="folder-outline" xmlns="http://www.w3.org/2000/svg"><path d="M20 18H4V8h16m0-2h-8l-2-2H4c-1.11 0-2 .89-2 2v12c0 1.1.9 2 2 2h16c1.1 0 2-.9 2-2V8a2 2 0 00-2-2z"/></svg><svg viewBox="0 0 24 24" fill="currentColor" id="format-list-bulleted" xmlns="http://www.w3.org/2000/svg"><path d="M7 5h14v2H7V5m0 8v-2h14v2H7M4 4.5c.83 0 1.5.67 1.5 1.5S4.83 7.5 4 7.5 2.5 6.83 2.5 6 3.17 4.5 4 4.5m0 6c.83 0 1.5.67 1.5 1.5s-.67 1.5-1.5 1.5-1.5-.67-1.5-1.5.67-1.5 1.5-1.5M7 19v-2h14v2H7m-3-2.5c.83 0 1.5.67 1.5 1.5s-.67 1.5-1.5 1.5-1.5-.67-1.5-1.5.67-1.5 1.5-1.5z"/></svg><svg viewBox="0 0 24 24" fill="currentColor" id="fridge" xmlns="http://www.w3.org/2000/svg"><path d="M7 2h10c1.1 0 2 .9 2 2v5H5V4c0-1.1.9-2 2-2m12 17c0 1.1-.9 2-2 2v1h-2v-1H9v1H7v-1c-1.1 0-2-.9-2-2v-9h14v9M8 5v2h2V5H8m0 7v3h2v-3H8z"/></svg><svg viewBox="0 0 24 24" fill="currentColor" id="google" xmlns="http://www.w3.org/2000/svg"><path d="M21.35 11.1h-9.17v2.73h6.51c-.33 3.81-3.5 5.44-6.5 5.44C8.36 19.27 5 16.25 5 12c0-4.1 3.2-7.27 7.2-7.27 3.09 0 4.9 1.97 4.9 1.97L19 4.72S16.56 2 12.1 2C6.42 2 2.03 6.8 2.03 12c0 5.05 4.13 10 10.22 10 5.35 0 9.25-3.67 9.25-9.09 0-1.15-.15-1.81-.15-1.81z"/></svg><svg viewBox="0 0 24 24" fill="currentColor" id="heart" xmlns="http://www.w3.org/2000/svg"><path d="M12 21.35l-1.45-1.32C5.4 15.36 2 12.27 2 8.5 2 5.41 4.42 3 7.5 3c1.74 0 3.41.81 4.5 2.08C13.09 3.81 14.76 3 16.5 3 19.58 3 22 5.41 22 8.5c0 3.77-3.4 6.86-8.55 11.53L12 21.35z"/></svg><svg viewBox="0 0 24 24" fill="currentColor" id="heart-outline" xmlns="http://www.w3.org/2000/svg"><path d="M12.1 18.55l-.1.1-.11-.1C7.14 14.24 4 11.39 4 8.5 4 6.5 5.5 5 7.5 5c1.54 0 3.04 1 3.57 2.36h1.86C13.46 6 14.96 5 16.5 5c2 0 3.5 1.5 3.5 3.5 0 2.89-3.14 5.74-7.9 10.05M16.5 3c-1.74 0-3.41.81-4.5 2.08C10.91 3.81 9.24 3 7.5 3 4.42 3 2 5.41 2 8.5c0 3.77 3.4 6.86 8.55 11.53L12 21.35l1.45-1.32C18.6 15.36 22 12.27 22 8.5 22 5.41 19.58 3 16.5 3z"/></svg><svg fill="currentColor" viewBox="0 0 48 48" id="help" xmlns="http://www.w3.org/2000/svg"><path d="M0 0h48v48H0z" fill="none"/><path d="M38 4H10C7.79 4 6 5.79 6 8v28c0 2.21 1.79 4 4 4h8l6 6 6-6h8c2.21 0 4-1.79 4-4V8c0-2.21-1.79-4-4-4zM26 36h-4v-4h4v4zm4.13-15.49l-1.79 1.84C26.9 23.79 26 25 26 28h-4v-1c0-2.21.9-4.21 2.34-5.66l2.49-2.52C27.55 18.1 28 17.1 28 16c0-2.21-1.79-4-4-4s-4 1.79-4 4h-4c0-4.42 3.58-8 8-8s8 3.58 8 8c0 1.76-.71 3.35-1.87 4.51z"/></svg><svg viewBox="0 0 24 24" fill="currentColor" id="help-circle-outline" xmlns="http://www.w3.org/2000/svg"><path d="M11 18h2v-2h-2v2m1-16C6.48 2 2 6.48 2 12s4.48 10 10 10 10-4.48 10-10S17.52 2 12 2m0 18c-4.41 0-8-3.59-8-8s3.59-8 8-8 8 3.59 8 8-3.59 8-8 8m0-14c-2.21 0-4 1.79-4 4h2c0-1.1.9-2 2-2s2 .9 2 2c0 2-3 1.75-3 5h2c0-2.25 3-2.5 3-5 0-2.21-1.79-4-4-4z"/></svg><svg fill="currentColor" viewBox="0 0 48 48" id="hide" xmlns="http://www.w3.org/2000/svg"><path d="M0 0h48v48H0zm0 0h48v48H0zm0 0h48v48H0zm0 0h48v48H0z" fill="none"/><path d="M24 14c5.52 0 10 4.48 10 10 0 1.29-.26 2.52-.71 3.65l5.85 5.85c3.02-2.52 5.4-5.78 6.87-9.5-3.47-8.78-12-15-22.01-15-2.8 0-5.48.5-7.97 1.4l4.32 4.31c1.13-.44 2.36-.71 3.65-.71zM4 8.55l4.56 4.56.91.91C6.17 16.6 3.56 20.03 2 24c3.46 8.78 12 15 22 15 3.1 0 6.06-.6 8.77-1.69l.85.85L39.45 44 42 41.46 6.55 6 4 8.55zM15.06 19.6l3.09 3.09c-.09.43-.15.86-.15 1.31 0 3.31 2.69 6 6 6 .45 0 .88-.06 1.3-.15l3.09 3.09C27.06 33.6 25.58 34 24 34c-5.52 0-10-4.48-10-10 0-1.58.4-3.06 1.06-4.4zm8.61-1.57l6.3 6.3L30 24c0-3.31-2.69-6-6-6l-.33.03z"/></svg><svg viewBox="0 0 24 24" fill="currentColor" id="history" xmlns="http://www.w3.org/2000/svg"><path d="M13.5 8H12v5l4.28 2.54.72-1.21-3.5-2.08V8M13 3a9 9 0 00-9 9H1l3.96 4.03L9 12H6c0-3.87 3.13-7 7-7s7 3.13 7 7-3.13 7-7 7c-1.93 0-3.68-.79-4.94-2.06l-1.42 1.42A8.896 8.896 0 0013 21a9 9 0 000-18"/></svg><svg viewBox="0 0 24 24" fill="currentColor" id="image" xmlns="http://www.w3.org/2000/svg"><path d="M8.5 13.5l2.5 3 3.5-4.5 4.5 6H5m16 1V5a2 2 0 00-2-2H5c-1.1 0-2 .9-2 2v14c0 1.1.9 2 2 2h14c1.1 0 2-.9 2-2z"/></svg><svg viewBox="0 0 24 24" fill="currentColor" id="image-area" xmlns="http://www.w3.org/2000/svg"><path d="M20 5c1.1 0 2 .9 2 2v10c0 1.1-.9 2-2 2H4a2 2 0 01-2-2V7c0-1.11.89-2 2-2h16M5 16h14l-4.5-6-3.5 4.5-2.5-3L5 16z"/></svg><svg viewBox="0 0 24 24" fill="currentColor" id="information" xmlns="http://www.w3.org/2000/svg"><path d="M13 9h-2V7h2m0 10h-2v-6h2m-1-9C6.48 2 2 6.48 2 12s4.48 10 10 10 10-4.48 10-10S17.52 2 12 2z"/></svg><svg viewBox="0 0 24 24" fill="currentColor" id="instagram" xmlns="http://www.w3.org/2000/svg"><path d="M7.8 2h8.4C19.4 2 22 4.6 22 7.8v8.4c0 3.2-2.6 5.8-5.8 5.8H7.8C4.6 22 2 19.4 2 16.2V7.8C2 4.6 4.6 2 7.8 2m-.2 2C5.61 4 4 5.61 4 7.6v8.8C4 18.39 5.61 20 7.6 20h8.8c1.99 0 3.6-1.61 3.6-3.6V7.6C20 5.61 18.39 4 16.4 4H7.6m9.65 1.5a1.25 1.25 0 110 2.5 1.25 1.25 0 010-2.5M12 7c2.76 0 5 2.24 5 5s-2.24 5-5 5-5-2.24-5-5 2.24-5 5-5m0 2c-1.66 0-3 1.34-3 3s1.34 3 3 3 3-1.34 3-3-1.34-3-3-3z"/></svg><svg viewBox="0 0 24 24" fill="currentColor" id="link-variant" xmlns="http://www.w3.org/2000/svg"><path d="M10.59 13.41c.41.39.41 1.03 0 1.42-.39.39-1.03.39-1.42 0a5.003 5.003 0 010-7.07l3.54-3.54a5.003 5.003 0 017.07 0 5.003 5.003 0 010 7.07l-1.49 1.49c.01-.82-.12-1.64-.4-2.42l.47-.48a2.982 2.982 0 000-4.24 2.982 2.982 0 00-4.24 0l-3.53 3.53a2.982 2.982 0 000 4.24m2.82-4.24c.39-.39 1.03-.39 1.42 0a5.003 5.003 0 010 7.07l-3.54 3.54a5.003 5.003 0 01-7.07 0 5.003 5.003 0 010-7.07l1.49-1.49c-.01.82.12 1.64.4 2.43l-.47.47a2.982 2.982 0 000 4.24 2.982 2.982 0 004.24 0l3.53-3.53a2.982 2.982 0 000-4.24.973.973 0 010-1.42z"/></svg><svg viewBox="0 0 24 24" fill="currentColor" id="loading" xmlns="http://www.w3.org/2000/svg"><path d="M12 4V2C6.48 2 2 6.48 2 12h2c0-4.42 3.58-8 8-8z"/></svg><svg viewBox="0 0 24 24" fill="currentColor" id="lock" xmlns="http://www.w3.org/2000/svg"><path d="M12 17a2 2 0 10.001-4.001A2 2 0 0012 17m6-9c1.1 0 2 .9 2 2v10c0 1.1-.9 2-2 2H6c-1.1 0-2-.9-2-2V10a2 2 0 012-2h1V6c0-2.76 2.24-5 5-5s5 2.24 5 5v2h1m-6-5c-1.66 0-3 1.34-3 3v2h6V6c0-1.66-1.34-3-3-3z"/></svg><svg viewBox="0 0 24 24" fill="currentColor" id="lock-open" xmlns="http://www.w3.org/2000/svg"><path d="M18 8a2 2 0 012 2v10a2 2 0 01-2 2H6a2 2 0 01-2-2V10a2 2 0 012-2h9V6a3 3 0 00-3-3 3 3 0 00-3 3H7a5 5 0 015-5 5 5 0 015 5v2h1m-6 9a2 2 0 002-2 2 2 0 00-2-2 2 2 0 00-2 2 2 2 0 002 2z"/></svg><svg viewBox="0 0 24 24" fill="currentColor" id="lock-open-outline" xmlns="http://www.w3.org/2000/svg"><path d="M18 20V10H6v10h12m0-12a2 2 0 012 2v10a2 2 0 01-2 2H6a2 2 0 01-2-2V10a2 2 0 012-2h9V6a3 3 0 00-3-3 3 3 0 00-3 3H7a5 5 0 015-5 5 5 0 015 5v2h1m-6 9a2 2 0 01-2-2 2 2 0 012-2 2 2 0 012 2 2 2 0 01-2 2z"/></svg><svg viewBox="0 0 24 24" fill="currentColor" id="lock-outline" xmlns="http://www.w3.org/2000/svg"><path d="M12 17a2 2 0 01-2-2c0-1.11.89-2 2-2a2 2 0 012 2 2 2 0 01-2 2m6 3V10H6v10h12m0-12a2 2 0 012 2v10a2 2 0 01-2 2H6a2 2 0 01-2-2V10c0-1.11.89-2 2-2h1V6a5 5 0 015-5 5 5 0 015 5v2h1m-6-5a3 3 0 00-3 3v2h6V6a3 3 0 00-3-3z"/></svg><svg viewBox="0 0 24 24" fill="currentColor" id="magnify" xmlns="http://www.w3.org/2000/svg"><path d="M9.5 3A6.5 6.5 0 0116 9.5c0 1.61-.59 3.09-1.56 4.23l.27.27h.79l5 5-1.5 1.5-5-5v-.79l-.27-.27A6.516 6.516 0 019.5 16a6.5 6.5 0 110-13m0 2C7 5 5 7 5 9.5S7 14 9.5 14 14 12 14 9.5 12 5 9.5 5z"/></svg><svg viewBox="0 0 24 24" fill="currentColor" id="map-marker" xmlns="http://www.w3.org/2000/svg"><path d="M12 11.5a2.5 2.5 0 010-5 2.5 2.5 0 010 5M12 2C8.13 2 5 5.13 5 9c0 5.25 7 13 7 13s7-7.75 7-13c0-3.87-3.13-7-7-7z"/></svg><svg viewBox="0 0 24 24" fill="currentColor" id="menu" xmlns="http://www.w3.org/2000/svg"><path d="M3 6h18v2H3V6m0 5h18v2H3v-2m0 5h18v2H3v-2z"/></svg><svg viewBox="0 0 24 24" fill="currentColor" id="menu-down" xmlns="http://www.w3.org/2000/svg"><path d="M7 10l5 5 5-5H7z"/></svg><svg viewBox="0 0 24 24" fill="currentColor" id="menu-up" xmlns="http://www.w3.org/2000/svg"><path d="M7 15l5-5 5 5H7z"/></svg><svg fill="currentColor" viewBox="0 0 48 48" id="new" xmlns="http://www.w3.org/2000/svg"><defs><path d="M0 0h48v48H0V0z" id="ela"/></defs><clipPath id="elb"><use overflow="visible" xlink:href="#ela"/></clipPath><path clip-path="url(#elb)" d="M40 8H8c-2.21 0-3.98 1.79-3.98 4L4 36c0 2.21 1.79 4 4 4h32c2.21 0 4-1.79 4-4V12c0-2.21-1.79-4-4-4zM17 30h-2.4l-5.1-7v7H7V18h2.5l5 7v-7H17v12zm10-9.49h-5v2.24h5v2.51h-5v2.23h5V30h-8V18h8v2.51zM41 28c0 1.1-.9 2-2 2h-8c-1.1 0-2-.9-2-2V18h2.5v9.01h2.25v-7.02h2.5v7.02h2.25V18H41v10z"/></svg><svg viewBox="0 0 24 24" fill="currentColor" id="package-closed" xmlns="http://www.w3.org/2000/svg"><path d="M21 16.5c0 .38-.21.71-.53.88l-7.9 4.44c-.16.12-.36.18-.57.18-.21 0-.41-.06-.57-.18l-7.9-4.44A.991.991 0 013 16.5v-9c0-.38.21-.71.53-.88l7.9-4.44c.16-.12.36-.18.57-.18.21 0 .41.06.57.18l7.9 4.44c.32.17.53.5.53.88v9M12 4.15l-1.89 1.07L16 8.61l1.96-1.11L12 4.15M6.04 7.5L12 10.85l1.96-1.1-5.88-3.4L6.04 7.5M5 15.91l6 3.38v-6.71L5 9.21v6.7m14 0v-6.7l-6 3.37v6.71l6-3.38z"/></svg><svg viewBox="0 0 24 24" fill="currentColor" id="pencil" xmlns="http://www.w3.org/2000/svg"><path d="M20.71 7.04c.39-.39.39-1.04 0-1.41l-2.34-2.34c-.37-.39-1.02-.39-1.41 0l-1.84 1.83 3.75 3.75M3 17.25V21h3.75L17.81 9.93l-3.75-3.75L3 17.25z"/></svg><svg viewBox="0 0 24 24" fill="currentColor" id="pig" xmlns="http://www.w3.org/2000/svg"><path d="M9.5 9C8.67 9 8 9.67 8 10.5S8.67 12 9.5 12s1.5-.67 1.5-1.5S10.33 9 9.5 9m5 0c-.83 0-1.5.67-1.5 1.5s.67 1.5 1.5 1.5 1.5-.67 1.5-1.5S15.33 9 14.5 9M12 4l.68.03c.94-.79 2.14-1.44 3.04-1.68 1.87-.5 5.16-.12 5.59 1.48.31 1.17-.71 2.62-2.28 3.55a9 9 0 11-14.06 0C3.4 6.45 2.38 5 2.69 3.83c.43-1.6 3.72-1.98 5.59-1.48.9.24 2.1.89 3.04 1.68L12 4m-2 12c.55 0 1 .45 1 1s-.45 1-1 1-1-.45-1-1 .45-1 1-1m4 0c.55 0 1 .45 1 1s-.45 1-1 1-1-.45-1-1 .45-1 1-1m-2-3c-2.76 0-5 2.34-5 4 0 1.66 2.24 3 5 3s5-1.34 5-3-2.24-4-5-4M7.76 4.28c-.45-.12-3.17.07-3.17.07S6.8 6.1 7.24 6.22c.45.12 2.53.21 2.67-.32.15-.54-1.71-1.5-2.15-1.62m8.48 0c-.44.12-2.3 1.08-2.15 1.62.14.53 2.22.44 2.67.32.44-.12 2.65-1.87 2.65-1.87s-2.72-.19-3.17-.07z"/></svg><svg viewBox="0 0 24 24" fill="currentColor" id="pinterest" xmlns="http://www.w3.org/2000/svg"><path d="M9.04 21.54c.96.29 1.93.46 2.96.46 5.52 0 10-4.48 10-10S17.52 2 12 2 2 6.48 2 12c0 4.25 2.67 7.9 6.44 9.34-.09-.78-.18-2.07 0-2.96l1.15-4.94s-.29-.58-.29-1.5c0-1.38.86-2.41 1.84-2.41.86 0 1.26.63 1.26 1.44 0 .86-.57 2.09-.86 3.27-.17.98.52 1.84 1.52 1.84 1.78 0 3.16-1.9 3.16-4.58 0-2.4-1.72-4.04-4.19-4.04-2.82 0-4.48 2.1-4.48 4.31 0 .86.28 1.73.74 2.3.09.06.09.14.06.29l-.29 1.09c0 .17-.11.23-.28.11-1.28-.56-2.02-2.38-2.02-3.85 0-3.16 2.24-6.03 6.56-6.03 3.44 0 6.12 2.47 6.12 5.75 0 3.44-2.13 6.2-5.18 6.2-.97 0-1.92-.52-2.26-1.13l-.67 2.37c-.23.86-.86 2.01-1.29 2.7v-.03z"/></svg><svg viewBox="0 0 24 24" fill="currentColor" id="playlist-check" xmlns="http://www.w3.org/2000/svg"><path d="M14 10H2v2h12v-2m0-4H2v2h12V6M2 16h8v-2H2v2m19.5-4.5L23 13l-7 7-4.5-4.5L13 14l3 3 5.5-5.5z"/></svg><svg viewBox="0 0 24 24" fill="currentColor" id="plus" xmlns="http://www.w3.org/2000/svg"><path d="M19 13h-6v6h-2v-6H5v-2h6V5h2v6h6v2z"/></svg><svg fill="currentColor" viewBox="0 0 32 32" id="pro" xmlns="http://www.w3.org/2000/svg"><path d="M32 16a16 16 0 10-32 0 16 16 0 0032 0zM8.667 20.667a1.333 1.333 0 01-1.334-1.334v-7.057a.667.667 0 011.139-.47l3.019 3.018a.669.669 0 00.977-.037l3.025-3.53a.668.668 0 011.014 0l3.054 3.564a.667.667 0 00.946.068l3.721-3.254a.667.667 0 011.105.498v7.2A1.333 1.333 0 0124 20.667H8.667z"/></svg><svg viewBox="0 0 24 24" fill="currentColor" id="quality" xmlns="http://www.w3.org/2000/svg"><path d="M23.446 10.593L22.2 9.267l.422-1.773a2.075 2.075 0 00-1.408-2.437l-1.746-.519-.52-1.746a2.07 2.07 0 00-2.437-1.409l-1.778.417L13.407.553a2.077 2.077 0 00-2.814 0L9.267 1.8l-1.773-.417a2.072 2.072 0 00-2.437 1.408l-.519 1.745-1.748.521a2.076 2.076 0 00-1.407 2.437L1.8 9.268.553 10.594a2.08 2.08 0 000 2.815L1.8 14.734l-.422 1.774a2.077 2.077 0 001.409 2.437l1.746.52.519 1.744a2.074 2.074 0 002.437 1.409l1.778-.418 1.326 1.251a2.08 2.08 0 002.815 0l1.325-1.25 1.773.421a2.075 2.075 0 002.436-1.408l.52-1.745 1.747-.52a2.075 2.075 0 001.408-2.438l-.417-1.778 1.252-1.327a2.078 2.078 0 00-.006-2.813zM13.9 7.458L13.555 9a.893.893 0 00.863 1.12h2.188a.892.892 0 01.854 1.152l-.9 2.8v.007c-.344 1.122-.937 1.887-2.11 1.887-2.723 0-3.124.306-6.142-1.2a.5.5 0 01-.277-.448V10.5a.5.5 0 01.5-.5h1.1a.889.889 0 00.729-.378l2.182-2.8a.764.764 0 011.364.634z"/></svg><svg fill="currentColor" viewBox="0 0 48 48" id="rebuild" xmlns="http://www.w3.org/2000/svg"><path d="M0 0h48v48H0z" fill="none"/><path d="M28 24c0-2.21-1.79-4-4-4s-4 1.79-4 4 1.79 4 4 4 4-1.79 4-4zM24 6C14.06 6 6 14.06 6 24H0l8 8 8-8h-6c0-7.73 6.27-14 14-14s14 6.27 14 14-6.27 14-14 14c-3.03 0-5.82-.97-8.12-2.61l-2.83 2.87C16.09 40.6 19.88 42 24 42c9.94 0 18-8.06 18-18S33.94 6 24 6z"/></svg><svg fill="currentColor" viewBox="0 0 48 48" id="receipt" xmlns="http://www.w3.org/2000/svg"><path d="M36 34H12v-4h24v4zm0-8H12v-4h24v4zm0-8H12v-4h24v4zM6 44l3-3 3 3 3-3 3 3 3-3 3 3 3-3 3 3 3-3 3 3 3-3 3 3V4l-3 3-3-3-3 3-3-3-3 3-3-3-3 3-3-3-3 3-3-3-3 3-3-3v40z"/><path d="M0 0h48v48H0z" fill="none"/></svg><svg viewBox="0 0 24 24" fill="currentColor" id="reload" xmlns="http://www.w3.org/2000/svg"><path d="M19 12h3.32l-4.95 4.95L12.42 12h4.55a5.82 5.82 0 00-1.73-4.25 6 6 0 00-8.48 0 6.011 6.011 0 000 8.49 6.008 6.008 0 006.82 1.17l1.47 1.47a7.99 7.99 0 01-9.71-1.23c-3.12-3.12-3.11-8.18.01-11.3 3.15-3.13 8.18-3.14 11.31-.01A7.98 7.98 0 0119 12z"/></svg><svg fill="currentColor" viewBox="0 0 48 48" id="repeat" xmlns="http://www.w3.org/2000/svg"><path d="M24 8V2l-8 8 8 8v-6c6.63 0 12 5.37 12 12 0 2.03-.51 3.93-1.39 5.61l2.92 2.92C39.08 30.05 40 27.14 40 24c0-8.84-7.16-16-16-16zm0 28c-6.63 0-12-5.37-12-12 0-2.03.51-3.93 1.39-5.61l-2.92-2.92C8.92 17.95 8 20.86 8 24c0 8.84 7.16 16 16 16v6l8-8-8-8v6z"/><path d="M0 0h48v48H0z" fill="none"/></svg><svg viewBox="0 0 24 24" fill="currentColor" id="reply" xmlns="http://www.w3.org/2000/svg"><path d="M10 9V5l-7 7 7 7v-4.1c5 0 8.5 1.6 11 5.1-1-5-4-10-11-11z"/></svg><svg viewBox="0 0 24 24" fill="currentColor" id="rocket" xmlns="http://www.w3.org/2000/svg"><path d="M2.81 14.12l2.83-2.83 2.53-.5c3.22-4.38 9.38-6.57 11.61-6.57 0 2.23-2.19 8.39-6.57 11.61l-.5 2.53-2.83 2.83-.71-3.53c-1.41 0-1.41 0-2.12-.71-.71-.71-.71-.71-.71-2.12l-3.53-.71m2.83 2.83l1.41 1.41-2.66 2.67H2.97v-1.42l2.67-2.66m-1.42-1.41l1.24.17L3 18.16v-1.42l1.22-1.2m4.07 3l.17 1.24L7.26 21H5.84l2.45-2.46M13 9.5c-.83 0-1.5.67-1.5 1.5s.67 1.5 1.5 1.5 1.5-.67 1.5-1.5-.67-1.5-1.5-1.5z"/></svg><svg viewBox="0 0 24 24" fill="currentColor" id="rss" xmlns="http://www.w3.org/2000/svg"><path d="M6.18 15.64c1.2 0 2.18.98 2.18 2.18C8.36 19 7.38 20 6.18 20 5 20 4 19 4 17.82c0-1.2.98-2.18 2.18-2.18M4 4.44c8.59 0 15.56 6.97 15.56 15.56h-2.83c0-7.03-5.7-12.73-12.73-12.73V4.44m0 5.66c5.47 0 9.9 4.43 9.9 9.9h-2.83c0-3.9-3.17-7.07-7.07-7.07V10.1z"/></svg><svg viewBox="0 0 24 24" fill="currentColor" id="security-account" xmlns="http://www.w3.org/2000/svg"><path d="M12 1L3 5v6c0 5.55 3.84 10.74 9 12 5.16-1.26 9-6.45 9-12V5l-9-4m0 4c1.66 0 3 1.34 3 3s-1.34 3-3 3-3-1.34-3-3 1.34-3 3-3m5.13 12A9.69 9.69 0 0112 20.92 9.69 9.69 0 016.87 17c-.34-.5-.63-1-.87-1.53 0-1.65 2.71-3 6-3s6 1.32 6 3c-.24.53-.53 1.03-.87 1.53z"/></svg><svg viewBox="0 0 24 24" fill="currentColor" id="settings" xmlns="http://www.w3.org/2000/svg"><path d="M12 15.5c-1.93 0-3.5-1.57-3.5-3.5s1.57-3.5 3.5-3.5 3.5 1.57 3.5 3.5-1.57 3.5-3.5 3.5m7.43-2.53c.04-.32.07-.64.07-.97 0-.33-.03-.66-.07-1l2.11-1.63c.19-.15.24-.42.12-.64l-2-3.46c-.12-.22-.39-.31-.61-.22l-2.49 1c-.52-.39-1.06-.73-1.69-.98l-.37-2.65A.506.506 0 0014 2h-4c-.25 0-.46.18-.5.42l-.37 2.65c-.63.25-1.17.59-1.69.98l-2.49-1c-.22-.09-.49 0-.61.22l-2 3.46c-.13.22-.07.49.12.64L4.57 11c-.04.34-.07.67-.07 1 0 .33.03.65.07.97l-2.11 1.66c-.19.15-.25.42-.12.64l2 3.46c.12.22.39.3.61.22l2.49-1.01c.52.4 1.06.74 1.69.99l.37 2.65c.04.24.25.42.5.42h4c.25 0 .46-.18.5-.42l.37-2.65c.63-.26 1.17-.59 1.69-.99l2.49 1.01c.22.08.49 0 .61-.22l2-3.46c.12-.22.07-.49-.12-.64l-2.11-1.66z"/></svg><svg viewBox="0 0 24 24" fill="currentColor" id="share" xmlns="http://www.w3.org/2000/svg"><path d="M21 11l-7-7v4C7 9 4 14 3 19c2.5-3.5 6-5.1 11-5.1V18l7-7z"/></svg><svg viewBox="0 0 24 24" fill="currentColor" id="shield-check" xmlns="http://www.w3.org/2000/svg"><path d="M10 17l-4-4 1.41-1.41L10 14.17l6.59-6.59L18 9m-6-8L3 5v6c0 5.55 3.84 10.74 9 12 5.16-1.26 9-6.45 9-12V5l-9-4z"/></svg><svg fill="currentColor" viewBox="0 0 48 48" id="show" xmlns="http://www.w3.org/2000/svg"><path d="M0 0h48v48H0z" fill="none"/><path d="M24 9C14 9 5.46 15.22 2 24c3.46 8.78 12 15 22 15s18.54-6.22 22-15C42.54 15.22 34.01 9 24 9zm0 25c-5.52 0-10-4.48-10-10s4.48-10 10-10 10 4.48 10 10-4.48 10-10 10zm0-16c-3.31 0-6 2.69-6 6s2.69 6 6 6 6-2.69 6-6-2.69-6-6-6z"/></svg><svg fill="currentColor" viewBox="0 0 16 16" id="sort" xmlns="http://www.w3.org/2000/svg"><path d="M1 4h10a1 1 0 100-2H1a1 1 0 100 2zm6 6H1a1 1 0 100 2h6a1 1 0 100-2zm2-4H1a1 1 0 100 2h8a1 1 0 100-2zm6 4a.997.997 0 00-.707.293l-.293.293V6a1 1 0 10-2 0v4.586l-.293-.293a1 1 0 10-1.414 1.414l2 2a.997.997 0 001.414 0l2-2A1 1 0 0015 10z"/></svg><svg fill="currentColor" viewBox="0 0 16 16" id="split" xmlns="http://www.w3.org/2000/svg"><g fill="currentColor"><path d="M10 0l2.3 2.3-2.9 2.9 1.4 1.4 2.9-2.9L16 6V0h-6zM6 0H0v6l2.3-2.3L7 8.4V16h2V7.6L3.7 2.3 6 0z"/></g></svg><svg viewBox="0 0 24 24" fill="currentColor" id="square-edit-outline" xmlns="http://www.w3.org/2000/svg"><path d="M5 3c-1.11 0-2 .89-2 2v14a2 2 0 002 2h14a2 2 0 002-2v-7h-2v7H5V5h7V3H5m12.78 1a.69.69 0 00-.48.2l-1.22 1.21 2.5 2.5L19.8 6.7c.26-.26.26-.7 0-.95L18.25 4.2c-.13-.13-.3-.2-.47-.2m-2.41 2.12L8 13.5V16h2.5l7.37-7.38-2.5-2.5z"/></svg><svg viewBox="0 0 24 24" fill="currentColor" id="tag" xmlns="http://www.w3.org/2000/svg"><path d="M5.5 7A1.5 1.5 0 014 5.5 1.5 1.5 0 015.5 4 1.5 1.5 0 017 5.5 1.5 1.5 0 015.5 7m15.91 4.58l-9-9C12.05 2.22 11.55 2 11 2H4c-1.11 0-2 .89-2 2v7c0 .55.22 1.05.59 1.41l8.99 9c.37.36.87.59 1.42.59.55 0 1.05-.23 1.41-.59l7-7c.37-.36.59-.86.59-1.41 0-.56-.23-1.06-.59-1.42z"/></svg><svg viewBox="0 0 24 24" fill="currentColor" id="team-plan" xmlns="http://www.w3.org/2000/svg"><path d="M14.227 14.1v3.464a1.957 1.957 0 01-.348 1.11.24.24 0 00-.043.16l.393 4.709a.494.494 0 00.493.454h3.958a.494.494 0 00.493-.454l.439-5.257a.246.246 0 01.246-.227h1.791a.494.494 0 00.495-.5V14.1a5.435 5.435 0 00-9-4.106.247.247 0 00-.044.322 6.887 6.887 0 011.127 3.784zM2.351 18.062h1.791a.246.246 0 01.246.227l.439 5.257A.494.494 0 005.32 24h3.958a.494.494 0 00.493-.454l.439-5.257a.246.246 0 01.246-.227h1.791a.494.494 0 00.5-.5V14.1a5.443 5.443 0 00-10.886 0v3.464a.494.494 0 00.49.498z"/><path d="M16.7 0a4.2 4.2 0 104.2 4.205A4.21 4.21 0 0016.7 0zm0 6.431a2.229 2.229 0 01-2.226-2.226 2.132 2.132 0 01.156-.8.249.249 0 01.36-.119 5.31 5.31 0 002.8.792 5.344 5.344 0 00.9-.076.2.2 0 01.237.2A2.228 2.228 0 0116.7 6.431zM7.3 0a4.2 4.2 0 104.2 4.205A4.21 4.21 0 007.3 0zm0 6.431a2.228 2.228 0 01-2.227-2.226 2.132 2.132 0 01.156-.8.244.244 0 01.153-.143.247.247 0 01.207.024 5.31 5.31 0 002.8.792 5.344 5.344 0 00.9-.076.2.2 0 01.237.2A2.229 2.229 0 017.3 6.431z"/><path d="M14.227 14.1v3.464a1.957 1.957 0 01-.348 1.11.24.24 0 00-.043.16l.393 4.709a.494.494 0 00.493.454h3.958a.494.494 0 00.493-.454l.439-5.257a.246.246 0 01.246-.227h1.791a.494.494 0 00.495-.5V14.1a5.435 5.435 0 00-9-4.106.247.247 0 00-.044.322 6.887 6.887 0 011.127 3.784zM2.351 18.062h1.791a.246.246 0 01.246.227l.439 5.257A.494.494 0 005.32 24h3.958a.494.494 0 00.493-.454l.439-5.257a.246.246 0 01.246-.227h1.791a.494.494 0 00.5-.5V14.1a5.443 5.443 0 00-10.886 0v3.464a.494.494 0 00.49.498z"/><path d="M16.7 0a4.2 4.2 0 104.2 4.205A4.21 4.21 0 0016.7 0zm0 6.431a2.229 2.229 0 01-2.226-2.226 2.132 2.132 0 01.156-.8.249.249 0 01.36-.119 5.31 5.31 0 002.8.792 5.344 5.344 0 00.9-.076.2.2 0 01.237.2A2.228 2.228 0 0116.7 6.431zM7.3 0a4.2 4.2 0 104.2 4.205A4.21 4.21 0 007.3 0zm0 6.431a2.228 2.228 0 01-2.227-2.226 2.132 2.132 0 01.156-.8.244.244 0 01.153-.143.247.247 0 01.207.024 5.31 5.31 0 002.8.792 5.344 5.344 0 00.9-.076.2.2 0 01.237.2A2.229 2.229 0 017.3 6.431z"/></svg><svg viewBox="0 0 24 24" fill="currentColor" id="thumb-down" xmlns="http://www.w3.org/2000/svg"><path d="M19 15h4V3h-4m-4 0H6c-.83 0-1.54.5-1.84 1.22l-3.02 7.05c-.09.23-.14.47-.14.73v2c0 1.1.9 2 2 2h6.31l-.95 4.57c-.02.1-.03.2-.03.31 0 .42.17.79.44 1.06L9.83 23l6.58-6.59c.37-.36.59-.86.59-1.41V5a2 2 0 00-2-2z"/></svg><svg viewBox="0 0 24 24" fill="currentColor" id="thumb-up" xmlns="http://www.w3.org/2000/svg"><path d="M23 10a2 2 0 00-2-2h-6.32l.96-4.57c.02-.1.03-.21.03-.32 0-.41-.17-.79-.44-1.06L14.17 1 7.59 7.58C7.22 7.95 7 8.45 7 9v10c0 1.1.9 2 2 2h9c.83 0 1.54-.5 1.84-1.22l3.02-7.05c.09-.23.14-.47.14-.73v-2M1 21h4V9H1v12z"/></svg><svg viewBox="0 0 24 24" fill="currentColor" id="twitter" xmlns="http://www.w3.org/2000/svg"><path d="M22.46 6c-.77.35-1.6.58-2.46.69.88-.53 1.56-1.37 1.88-2.38-.83.5-1.75.85-2.72 1.05C18.37 4.5 17.26 4 16 4c-2.35 0-4.27 1.92-4.27 4.29 0 .34.04.67.11.98C8.28 9.09 5.11 7.38 3 4.79c-.37.63-.58 1.37-.58 2.15 0 1.49.75 2.81 1.91 3.56-.71 0-1.37-.2-1.95-.5v.03c0 2.08 1.48 3.82 3.44 4.21a4.22 4.22 0 01-1.93.07 4.28 4.28 0 004 2.98 8.521 8.521 0 01-5.33 1.84c-.34 0-.68-.02-1.02-.06C3.44 20.29 5.7 21 8.12 21 16 21 20.33 14.46 20.33 8.79c0-.19 0-.37-.01-.56.84-.6 1.56-1.36 2.14-2.23z"/></svg><svg viewBox="0 0 24 24" id="undo" xmlns="http://www.w3.org/2000/svg"><path d="M7.535 7H14.5a5.5 5.5 0 010 11h-3.503a1 1 0 110-2H14.5a3.5 3.5 0 000-7H7.535l2.257 2.258a1.05 1.05 0 01-1.484 1.484l-4-4a1.05 1.05 0 010-1.484l4-4a1.05 1.05 0 111.484 1.484L7.535 7z" fill="currentColor"/></svg><svg viewBox="0 0 24 24" fill="currentColor" id="upload" xmlns="http://www.w3.org/2000/svg"><path d="M9 16v-6H5l7-7 7 7h-4v6H9m-4 4v-2h14v2H5z"/></svg><svg viewBox="0 0 24 24" fill="currentColor" id="vector-radius" xmlns="http://www.w3.org/2000/svg"><path d="M2 4h2V2h6v2c5.52 0 10 4.48 10 10h2v6h-2v2h-2v-2h-2v-6h2c0-4.42-3.58-8-8-8v2H4V6H2V4m16 12v2h2v-2h-2M6 4v2h2V4H6z"/></svg><svg viewBox="0 0 24 24" fill="currentColor" id="wallet" xmlns="http://www.w3.org/2000/svg"><path d="M21 18v1c0 1.1-.9 2-2 2H5a2 2 0 01-2-2V5c0-1.1.9-2 2-2h14c1.1 0 2 .9 2 2v1h-9a2 2 0 00-2 2v8c0 1.1.9 2 2 2m0-2h10V8H12m4 5.5c-.83 0-1.5-.67-1.5-1.5s.67-1.5 1.5-1.5 1.5.67 1.5 1.5-.67 1.5-1.5 1.5z"/></svg><svg viewBox="0 0 24 24" fill="currentColor" id="windows" xmlns="http://www.w3.org/2000/svg"><path d="M3 12V6.75l6-1.32v6.48L3 12m17-9v8.75l-10 .15V5.21L20 3M3 13l6 .09v6.81l-6-1.15V13m17 .25V22l-10-1.91V13.1l10 .15z"/></svg></defs></svg>
